<?xml version="1.0" encoding="utf-8"?>
<!-- Generator: Adobe Illustrator 19.0.0, SVG Export Plug-In . SVG Version: 6.00 Build 0)  -->
<svg version="1.1" id="Layer_1" xmlns="http://www.w3.org/2000/svg" xmlns:xlink="http://www.w3.org/1999/xlink" x="0px" y="0px"
	 viewBox="0 0 136 42" style="enable-background:new 0 0 136 42;" xml:space="preserve">
<style type="text/css">
	.st0{display:none;fill:#FDFDFD;}
	.st1{fill:#222222;}
	.st2{fill:#A7A7A7;}
	.st3{fill:#676767;}
	.st4{fill:#232323;}
	.st5{fill:#A9A9A9;}
	.st6{display:none;fill:#FAFAFA;}
	.st7{display:none;fill:#F9F9F9;}
	.st8{display:none;fill:#FBFBFB;}
</style>
<g id="XMLID_2_">
	<path id="XMLID_21_" class="st0" d="M51.6,42C34.4,42,17.2,42,0,42C0,28.1,0,14.2,0,0.4c3.2,0,6.3,0,9.5,0C9.1,0.5,8.7,0.7,8.2,0.8
		c-3,0.8-5,2.6-5.8,5.7c-0.2,0.9,0.1,1.3,1,1.4c1,0.1,2.1,0.3,3.1,0.3c0.4,0,0.8-0.4,1.1-0.7c0.2-0.2,0.2-0.7,0.4-1
		c0.6-1.1,1.9-1.7,3.2-1.6c1.2,0.1,2.1,0.8,2.3,1.9c0.2,0.9,0.2,1.8,0.2,2.8c-1.7,0.2-3.2,0.4-4.7,0.6c-5.6,0.9-8.4,5-7.1,10
		c0.6,2.3,2,3.8,4.3,4.3c2.5,0.5,4.9,0.1,7-1.7c0.4-0.4,0.8-0.8,1.2-1.1c0.6,0.7,1.1,1.5,1.7,2.1c0.9,1,1.2,0.9,2.1,0.1
		c0.7-0.7,1.4-1.4,2.2-1.9c0.8-0.6,0.8-1.2,0.2-2c-1-1.2-1.3-2.6-1.3-4.1c0.1-2.8,0-5.7,0-8.5c-0.1-3.8-1.9-6-5.6-6.8
		c-0.4-0.1-0.7-0.2-1.1-0.3c16.8,0,33.5,0,50.3,0c-0.7,0.2-1.3,0.4-2,0.6c-2.6,0.9-4.3,2.6-5.1,5.3c-0.3,1.2-0.1,1.5,1.1,1.7
		C57.7,8,58.5,8,59.2,8.2c1.1,0.3,1.7,0,2-1.2c0.4-1.5,2-2.3,3.5-2c1.5,0.2,2.3,1.2,2.3,3c0,0.6,0,1.1,0,1.7
		c-1.6,0.2-3.1,0.4-4.6,0.6c-4.7,0.8-7.2,3.3-7.4,7.5c-0.2,4.5,2.3,7,6.8,7c2.5-0.1,4.4-1.2,6-3c0.6,0.8,1.2,1.5,1.8,2.2
		c0.7,0.8,1.3,0.9,2.1,0.1c0.7-0.7,1.5-1.4,2.3-2.1c0.7-0.5,0.7-1.1,0.2-1.7c-1.1-1.3-1.4-2.8-1.4-4.5c0-3.1,0-6.2-0.1-9.4
		C72.6,3.6,71,1.9,68.4,1c-0.7-0.2-1.5-0.4-2.2-0.6c22.9,0,45.9,0,68.8,0c0,13.9,0,27.7,0,41.6c-25.6,0-51.2,0-76.8,0
		c1.8-0.3,3.7-0.5,5.5-0.9c6.8-1.3,13.2-3.6,18.9-7.7c0.6-0.5,1.8-0.9,1.2-2c-0.6-1-1.5-0.4-2.3-0.1c-9.8,4.1-20,5.9-30.7,5
		c-5.5-0.4-10.9-1.5-16.2-3.3c-4.5-1.5-8.8-3.4-12.9-5.9c-0.3-0.2-0.8-0.1-1.2-0.1c0.1,0.4,0.1,0.9,0.4,1.2c0.5,0.6,1.2,1.1,1.8,1.7
		c7.3,6.1,15.6,10,25,11.4C48.9,41.6,50.2,41.8,51.6,42z M29.5,4.4c0-0.9,0-1.5,0-2.2c0-0.8-0.3-1.1-1.1-1.1c-1,0-2.1,0-3.1,0
		c-0.7,0-1.1,0.3-1.1,1.1c0,7.1,0,14.2,0,21.2c0,0.8,0.3,1.1,1.1,1.1c1,0,2,0,3,0c1.3,0,1.5-0.1,1.5-1.5c0-4,0-8.1,0-12.1
		c0-1.1,0.2-2.3,0.5-3.4c0.3-1.1,1.3-1.6,2.5-1.5c1.1,0.1,1.8,0.7,2,1.8c0.2,1,0.3,2.1,0.3,3.1c0,4.1,0,8.1,0,12.2
		c0,1,0.4,1.4,1.4,1.4c0.9-0.1,1.8,0,2.7,0c1.4,0,1.5-0.1,1.5-1.5c0-3.9,0-7.8,0-11.8c0-1.1,0.1-2.3,0.4-3.4c0.4-1.3,1.6-1.9,3-1.7
		c1.1,0.2,1.7,0.9,1.9,2.3c0.1,0.7,0,1.4,0,2c0,4.2,0,8.4,0,12.6c0,1,0.4,1.4,1.4,1.4c1-0.1,2.1,0,3.1,0c0.7,0,1.1-0.3,1.1-1
		c0-5.8,0.1-11.5-0.1-17.3c-0.1-4-3.4-6.3-7.2-5.4c-2,0.5-3.3,1.8-4.1,3.7C36.6-0.7,32.9-0.8,29.5,4.4z M122.1,4.8
		c-0.1,0-0.1,0-0.2,0c0-0.8,0-1.6,0-2.4c0.1-1-0.4-1.3-1.3-1.2c-0.9,0-1.7,0-2.6,0c-1.3,0-1.4,0.1-1.4,1.4c0,4.3,0,8.6,0,12.8
		c0,2.6,0,5.2,0,7.9c0,1,0.4,1.4,1.3,1.3c0.9-0.1,1.7,0,2.6,0c1.6,0,1.7-0.1,1.7-1.6c0-4.2,0-8.4,0.1-12.6c0-0.9,0.3-1.9,0.7-2.8
		c0.4-1,1.6-1.6,2.5-1.4c1.1,0.2,1.8,0.9,1.9,2c0.1,0.9,0.2,1.9,0.2,2.8c0,4.1,0,8.3,0,12.4c0,0.9,0.3,1.3,1.3,1.3c1,0,2,0,3,0
		c1,0,1.3-0.3,1.3-1.3c0-4.9,0-9.8,0-14.8c0-1-0.1-1.9-0.2-2.9c-0.5-2.8-2.1-4.5-4.8-4.9c-2.6-0.4-4.6,0.8-5.9,3.4
		C122.3,4.3,122.2,4.5,122.1,4.8z M113.6,12.9c0-2.4-0.4-4.6-1.3-6.8c-1.5-3.3-4-5.3-7.7-5.4c-3.7-0.1-6.4,1.7-7.9,5
		c-2.2,4.8-2.2,9.8,0.1,14.6c3,6.2,11,6.5,14.7,0.7C113,18.4,113.6,15.7,113.6,12.9z M85,16.5c2.1-3.1,4.2-6.4,6.5-9.6
		c1.1-1.5,1.4-3.1,1.3-4.8c-0.1-0.6-0.3-1-1-1c-4.3,0-8.7,0-13,0c-0.3,0-0.8,0.5-0.9,0.9c-0.1,0.6,0,1.4,0,2c0,1.8,0,1.8,1.7,1.8
		c2,0,3.9,0,6,0c-0.2,0.3-0.3,0.5-0.4,0.6c-2.4,3.7-4.9,7.3-7.3,11c-0.4,0.6-0.7,1.4-0.8,2.1c-0.1,1.1-0.1,2.3,0,3.4
		c0,1,0.4,1.2,1.3,0.8c4.5-2.2,9-2.2,13.5,0c0.9,0.4,1.3,0.2,1.3-0.8c0-0.7-0.1-1.4,0-2.2c0.1-1.4-0.4-2.3-1.8-2.7
		C89.3,17.5,87.2,17,85,16.5z M84.5,38.9c0.1,0.1,0.2,0.1,0.3,0.2c0.4-0.3,0.9-0.6,1.2-0.9c2.6-2.9,3.8-6.4,4.1-10.2
		c0.1-1.3-0.3-1.7-1.5-2.1c-2-0.5-4.1-0.7-6.2-0.1c-1.7,0.4-3.3,1.2-4.9,1.9c-0.2,0.1-0.3,0.6-0.5,0.9c0.3,0.1,0.6,0.2,1,0.2
		c2.1-0.1,4.1-0.3,6.2-0.3c2.3,0,2.8,0.7,2.5,2.9c0,0.1,0,0.2-0.1,0.3c-0.6,2-1.3,4-1.9,6.1C84.6,38.1,84.6,38.5,84.5,38.9z"/>
	<path id="XMLID_18_" class="st1" d="M66.8,0.5c0.6,0.2,1.1,0.3,1.7,0.5c2.6,0.9,4.1,2.6,4.3,5.3c0.2,3.1,0.2,6.2,0.1,9.4
		c0,1.7,0.3,3.2,1.4,4.5c0.6,0.7,0.5,1.2-0.2,1.7c-0.8,0.7-1.6,1.4-2.3,2.1c-0.7,0.7-1.4,0.7-2-0.1c-0.6-0.7-1.2-1.4-1.8-2.2
		c-1.6,1.8-3.5,3-6,3c-4.4,0.1-7-2.5-6.8-7c0.2-4.2,2.7-6.8,7.4-7.5c1.5-0.2,3-0.4,4.6-0.6c0-0.6,0-1.1,0-1.7
		c-0.1-1.8-0.8-2.7-2.3-3c-1.5-0.2-3.1,0.6-3.5,2c-0.3,1.2-0.9,1.4-2,1.2C58.5,8,57.7,8,57,7.9c-1.2-0.1-1.4-0.5-1.1-1.7
		C56.7,3.6,58.4,1.9,61,1c0.4-0.1,0.8-0.3,1.2-0.4c0.5-0.2,1.1-0.3,1.7-0.3l0,0h1.8C66,0.4,66.5,0.5,66.8,0.5z M67.3,13.3
		c-0.1-0.1-0.2-0.2-0.4-0.3c-1.2,0.3-2.5,0.4-3.6,0.8c-2.1,0.8-3,3.7-1.7,5.6c0.4,0.5,1.1,0.9,1.8,1c1.4,0.2,2.8-0.8,3.2-2.4
		C67,16.5,67.1,14.8,67.3,13.3z"/>
	<path id="XMLID_15_" class="st1" d="M11.4,0.4c0.8,0,1.6,0.1,2.4,0.3c0,0,0,0,0,0c3.7,0.8,5.5,3,5.6,6.8c0,2.8,0.1,5.7,0,8.5
		c0,1.5,0.3,2.9,1.3,4.1c0.6,0.8,0.6,1.4-0.2,2c-0.8,0.6-1.4,1.3-2.2,1.9c-0.9,0.9-1.2,0.9-2.1-0.1c-0.6-0.7-1.1-1.4-1.7-2.1
		c-0.4,0.4-0.8,0.8-1.2,1.1c-2,1.8-4.4,2.2-7,1.7c-2.3-0.4-3.8-2-4.3-4.3c-1.3-5.1,1.6-9.1,7.1-10c1.5-0.3,3-0.4,4.7-0.6
		c-0.1-1-0.1-1.9-0.2-2.8c-0.2-1.1-1.1-1.8-2.3-1.9C9.9,4.8,8.6,5.5,8,6.5c-0.2,0.3-0.2,0.7-0.4,1C7.3,7.8,6.9,8.2,6.5,8.2
		c-1,0-2.1-0.2-3.1-0.3c-0.9-0.1-1.2-0.5-1-1.4c0.8-3.1,2.8-4.9,5.8-5.7c0,0,0,0,0,0c1-0.3,2-0.4,3-0.4L11.4,0.4z M14,12.9
		c-1.4,0.2-2.5,0.3-3.5,0.6c-2.1,0.6-3.1,2.3-2.8,4.5c0.2,1.1,0.6,2.1,1.7,2.4c1.2,0.3,2.2-0.1,3-1c0.3-0.4,0.7-0.9,0.8-1.4
		C13.5,16.4,13.7,14.8,14,12.9z"/>
	<path id="XMLID_14_" class="st2" d="M51.6,42c-1.3-0.2-2.7-0.4-4-0.6c-9.4-1.4-17.7-5.3-25-11.4c-0.6-0.5-1.3-1-1.8-1.7
		c-0.3-0.3-0.3-0.8-0.4-1.2c0.4,0,0.9-0.1,1.2,0.1c4.1,2.5,8.4,4.4,12.9,5.9c5.3,1.7,10.7,2.8,16.2,3.3c10.7,0.9,20.9-1,30.7-5
		c0.8-0.3,1.7-0.9,2.3,0.1c0.6,1.1-0.5,1.5-1.2,2c-5.7,4.1-12.1,6.4-18.9,7.7c-1.8,0.3-3.6,0.6-5.5,0.9C56,42,53.8,42,51.6,42z"/>
	<path id="XMLID_13_" class="st3" d="M65.8,0.4c-0.6,0-1.3,0-1.9,0C64.5,0.4,65.2,0.4,65.8,0.4z"/>
	<path id="XMLID_12_" class="st1" d="M29.5,4.4c3.4-5.2,7.2-5.1,10.8,0.1c0.8-1.9,2.1-3.2,4.1-3.7c3.8-0.9,7.1,1.4,7.2,5.4
		c0.2,5.7,0.1,11.5,0.1,17.3c0,0.7-0.4,1-1.1,1c-1,0-2.1,0-3.1,0c-1,0.1-1.4-0.4-1.4-1.4c0-4.2,0-8.4,0-12.6c0-0.7,0-1.4,0-2
		c-0.1-1.4-0.8-2.1-1.9-2.3c-1.4-0.2-2.6,0.4-3,1.7c-0.3,1.1-0.4,2.3-0.4,3.4c-0.1,3.9,0,7.8,0,11.8c0,1.4-0.1,1.5-1.5,1.5
		c-0.9,0-1.8,0-2.7,0c-1,0.1-1.4-0.4-1.4-1.4c0-4.1,0-8.1,0-12.2c0-1-0.1-2.1-0.3-3.1c-0.2-1.1-0.9-1.7-2-1.8
		c-1.1-0.1-2.2,0.4-2.5,1.5c-0.3,1.1-0.5,2.2-0.5,3.4c-0.1,4,0,8.1,0,12.1c0,1.3-0.1,1.5-1.5,1.5c-1,0-2,0-3,0
		c-0.8,0-1.1-0.3-1.1-1.1c0-7.1,0-14.2,0-21.2c0-0.8,0.4-1.1,1.1-1.1c1,0,2.1,0,3.1,0c0.8,0,1.1,0.4,1.1,1.1
		C29.5,2.9,29.5,3.5,29.5,4.4z"/>
	<path id="XMLID_11_" class="st4" d="M122.1,4.8c0.1-0.2,0.2-0.5,0.3-0.7c1.2-2.6,3.3-3.8,5.9-3.4c2.7,0.4,4.4,2.1,4.8,4.9
		c0.2,1,0.2,1.9,0.2,2.9c0,4.9,0,9.8,0,14.8c0,1-0.4,1.4-1.3,1.3c-1,0-2,0-3,0c-0.9,0-1.3-0.4-1.3-1.3c0-4.1,0-8.3,0-12.4
		c0-0.9-0.1-1.9-0.2-2.8c-0.2-1.1-0.8-1.8-1.9-2c-1-0.2-2.1,0.4-2.5,1.4c-0.4,0.9-0.7,1.8-0.7,2.8c-0.1,4.2-0.1,8.4-0.1,12.6
		c0,1.5-0.1,1.6-1.7,1.6c-0.9,0-1.7,0-2.6,0c-1,0.1-1.4-0.3-1.3-1.3c0-2.6,0-5.2,0-7.9c0-4.3,0-8.6,0-12.8c0-1.3,0.1-1.4,1.4-1.4
		c0.9,0,1.7,0,2.6,0c0.9,0,1.3,0.3,1.3,1.2c-0.1,0.8,0,1.6,0,2.4C121.9,4.8,122,4.8,122.1,4.8z"/>
	<path id="XMLID_8_" class="st1" d="M113.6,12.9c0,2.9-0.5,5.6-2.1,8c-3.7,5.8-11.7,5.4-14.7-0.7c-2.4-4.8-2.3-9.7-0.1-14.6
		c1.5-3.3,4.2-5.1,7.9-5c3.7,0.1,6.2,2.1,7.7,5.4C113.2,8.2,113.5,10.5,113.6,12.9z M107.4,15.3c0.2-1.6,0.2-3.2,0-4.8
		c-0.1-1.1-0.3-2.2-0.5-3.3c-0.3-1.3-1.2-2-2.4-2.1c-1.3-0.1-2.2,0.5-2.7,1.8c-0.2,0.5-0.4,1-0.4,1.5c-0.1,2.4-0.2,4.9-0.1,7.3
		c0.1,1.2,0.5,2.5,1.1,3.6c0.8,1.5,2.8,1.6,3.9,0.2c0.4-0.5,0.7-1,0.8-1.6C107.2,17,107.3,16.2,107.4,15.3z"/>
	<path id="XMLID_7_" class="st1" d="M85,16.5c2.2,0.5,4.3,1,6.4,1.6c1.3,0.4,1.9,1.3,1.8,2.7c-0.1,0.7,0,1.4,0,2.2
		c-0.1,1-0.5,1.2-1.3,0.8c-4.5-2.2-9-2.2-13.5,0c-0.9,0.4-1.3,0.2-1.3-0.8c0-1.1-0.1-2.3,0-3.4c0.1-0.7,0.4-1.5,0.8-2.1
		c2.4-3.7,4.9-7.4,7.3-11c0.1-0.1,0.2-0.3,0.4-0.6c-2.1,0-4.1,0-6,0c-1.7,0-1.7,0-1.7-1.8c0-0.7-0.1-1.4,0-2
		c0.1-0.4,0.6-0.9,0.9-0.9c4.3-0.1,8.7,0,13,0c0.7,0,0.9,0.4,1,1c0.1,1.8-0.2,3.3-1.3,4.8C89.2,10.1,87.1,13.3,85,16.5z"/>
	<path id="XMLID_6_" class="st5" d="M84.5,39.1c0.1-0.5,0.1-0.9,0.2-1.4c0.6-2,1.2-4,1.9-6.1c0-0.1,0.1-0.2,0.1-0.3
		c0.4-2.3-0.2-3-2.5-3c-2.1,0-3.9,0.2-6,0.3c-0.3,0-0.8-0.1-1.2-0.2c0.2-0.3,0.7-0.9,0.9-1.1c1.6-0.7,2.7-1.3,4.4-1.7
		c2-0.5,4.1-0.4,6.2,0.1c1.3,0.3,1.6,0.8,1.5,2.1c-0.3,3.8-1.4,7.3-4.1,10.2c-0.4,0.4-0.9,0.7-1.4,1.1
		C84.6,39.2,84.5,39.2,84.5,39.1z"/>
	<path id="XMLID_5_" class="st6" d="M67.3,13.3c-0.2,1.6-0.3,3.2-0.7,4.7c-0.5,1.7-1.9,2.7-3.2,2.4c-0.6-0.1-1.4-0.5-1.8-1
		c-1.3-1.9-0.4-4.8,1.7-5.6c1.1-0.4,2.4-0.6,3.6-0.8C67.1,13,67.2,13.1,67.3,13.3z"/>
	<path id="XMLID_4_" class="st7" d="M14,12.9c-0.3,1.9-0.5,3.5-0.8,5c-0.1,0.5-0.5,1-0.8,1.4c-0.8,0.9-1.8,1.4-3,1
		c-1.2-0.3-1.6-1.3-1.7-2.4c-0.3-2.2,0.7-3.9,2.8-4.5C11.5,13.2,12.6,13.2,14,12.9z"/>
	<path id="XMLID_3_" class="st8" d="M107.4,10.4c0.2,1.7,0.2,3.4,0,5c-0.1,0.8-0.2,1.6-0.4,2.5c-0.1,0.6-0.4,1.2-0.8,1.6
		c-1.1,1.3-3.1,1.3-3.9-0.2c-0.6-1.1-1-2.3-1.1-3.6c-0.1-2.4,0-4.9,0.1-7.3c0-0.5,0.2-1,0.4-1.5c0.6-1.3,1.5-1.9,2.7-1.8
		c1.2,0.1,2.1,0.8,2.4,2.1C107.1,8.3,107.3,9.4,107.4,10.4z"/>
</g>
</svg>
