<?xml version="1.0" encoding="utf-8"?>
<!-- Generator: Adobe Illustrator 19.0.0, SVG Export Plug-In . SVG Version: 6.00 Build 0)  -->
<svg version="1.1" id="Layer_1" xmlns="http://www.w3.org/2000/svg" xmlns:xlink="http://www.w3.org/1999/xlink" x="0px" y="0px"
	 viewBox="0 0 165 155" style="enable-background:new 0 0 165 155;" xml:space="preserve">
<style type="text/css">
	.st0{display:none;fill:#FEFEFE;}
	.st1{fill:#070707;}
	.st2{fill:#F1F1F1;}
	.st3{fill:#040404;}
	.st4{fill:#111111;}
	.st5{fill:#151515;}
	.st6{fill:#434343;}
	.st7{fill:#F0F0F0;}
	.st8{fill:#F3F3F3;}
	.st9{fill:#F2F2F2;}
	.st10{fill:#F4F4F4;}
	.st11{fill:#EFEFEF;}
	.st12{fill:#121211;}
	.st13{fill:#101010;}
	.st14{fill:#373737;}
	.st15{fill:#131212;}
	.st16{fill:#161616;}
	.st17{fill:#191919;}
	.st18{fill:#1E1E1E;}
</style>
<g id="XMLID_2_">
	<path id="XMLID_154_" class="st0" d="M1.4,152.3c0-50.9,0-101.8,0-152.8c53.8,0,107.6,0,161.4,0c0,50.9,0,101.9,0,152.8
		C109,152.3,55.2,152.3,1.4,152.3z M146.7,72.2c-0.1-0.2-0.1-0.4-0.2-0.6c-0.1-0.4-0.2-0.7-0.3-1.1c0.1-0.2,0.1-0.4,0.2-0.6
		c0.1-0.3,0.3-0.6,0.3-0.9c0-5.4,0-10.8,0-16.2c0-0.3-0.3-0.7-0.5-1c-0.1-0.6-0.1-1.1-0.2-1.7c0.1-0.3,0.5-0.7,0.4-0.9
		c-0.4-1.5-0.9-2.9-1.5-4.4c-0.1-0.2-0.5-0.3-0.8-0.5c-0.2-0.2-0.4-0.4-0.6-0.6c-0.3-0.3-0.6-0.6-1-0.8c-0.3-0.2-0.5-0.4-0.8-0.6
		c-0.5-0.4-1-0.7-1.5-1.1c-0.3-0.2-0.7-0.4-1-0.7c-0.6-0.4-1.2-0.7-1.9-1.1c-2.1-1-4.2-1.9-6.2-2.9c-8-3.9-16-7.8-24-11.8
		c-5.9-2.9-11.8-5.9-17.7-8.9c-3-1.5-6-1.4-9.1,0.1c-3.6,1.8-7.3,3.6-10.9,5.3c-4.6,2.2-9.2,4.4-13.8,6.7c-8.5,4.3-16.9,8.7-25.3,13
		c-1.9,1-3.8,1.9-5.4,3.2c-3.3,2.6-4.4,6.3-4.8,10.3c0,0.2,0,0.4-0.1,0.6c-0.1,1.1-0.1,2.1-0.2,3.2c0,1,0,2.1,0,3.1
		c0.1,1.2,0.1,2.3,0.2,3.5c0,0.3,0.1,0.6,0.1,0.9c0.1,0.6,0.2,1.2,0.3,1.7c0.4,1.7,0.8,3.4,1.3,5.1c0.1,0.7,0.2,1.4,0.2,2.1
		c0.4,3.6,0.8,7.2,1.2,10.9c0,0.5,0,1,0.1,1.5c0,0.8,0.1,1.5,0.1,2.3c0,0.4,0,0.8,0.1,1.2c0.1,1.1,0.2,2.1,0.2,3.2
		c0,0.2,0,0.4,0,0.6c0.1,0.8,0.1,1.5,0.2,2.3c0,0.4,0.1,0.8,0.1,1.1c0.1,0.7,0.1,1.3,0.2,2c0,0.4,0.1,0.8,0.1,1.1
		c0,0.3-0.1,0.6-0.1,0.9c0,0.2,0.1,0.4,0.1,0.6c0,0.2,0.1,0.4,0.1,0.6c0.2,0.6,0.3,1.2,0.5,1.7c0.2,0.2,0.4,0.4,0.6,0.6
		c0.4,0.5,0.9,1,1.3,1.5c0.6,0.4,1.3,0.9,1.9,1.3c0.3,0.1,0.5,0.3,0.8,0.4c0.7,0.4,1.4,0.7,2.1,1.1c0.3,0.1,0.6,0.3,1,0.4
		c0.6,0.3,1.3,0.7,1.9,1c0.5,0.2,1,0.5,1.5,0.7c0.5,0.2,0.9,0.5,1.4,0.7c0.5,0.2,1,0.5,1.5,0.7c0.5,0.2,0.9,0.5,1.4,0.7
		c0.2,0.1,0.5,0.2,0.7,0.4c0.8,0.4,1.6,0.9,2.4,1.3c0.1,0.1,0.2,0.1,0.4,0.2c0.6,0.3,1.3,0.7,1.9,1c0.5,0.2,1,0.4,1.5,0.7
		c0.6,0.3,1.3,0.7,1.9,1c0.3,0.1,0.6,0.3,1,0.4c0.6,0.3,1.3,0.7,1.9,1c0.3,0.1,0.5,0.2,0.8,0.3c0.9,0.5,1.8,0.9,2.6,1.4l0.1,0.1
		l0.1,0c0.6,0.3,1.2,0.7,1.9,1c0.5,0.2,1,0.5,1.5,0.7c0.6,0.3,1.3,0.7,1.9,1c0.1,0,0.3,0.1,0.4,0.1c0.8,0.4,1.6,0.9,2.5,1.3
		c0.1,0,0.3,0.1,0.4,0.1c0.8,0.4,1.6,0.9,2.5,1.3c0.5,0.2,1,0.5,1.5,0.7c0.6,0.3,1.3,0.7,1.9,1l0.1,0.1l0.1,0
		c0.8,0.4,1.6,0.8,2.4,1.3c0.1,0.1,0.3,0.1,0.4,0.2c0.8,0.4,1.7,0.9,2.5,1.3c0.1,0,0.3,0.1,0.4,0.1c0.9,0.5,1.8,0.9,2.8,1.4
		c0.2,0.1,0.5,0.2,0.7,0.3c0.8,0.4,1.6,0.7,2.5,1.1c0.7,0.2,1.4,0.4,2,0.5c2.6,0.6,4.9-0.3,6.9-1.9l0.1,0l0.1-0.1
		c0.7-0.4,1.5-0.9,2.2-1.3c0.1-0.1,0.3-0.1,0.4-0.2c0.8-0.4,1.7-0.8,2.5-1.2c0.1-0.1,0.2-0.1,0.4-0.2c1-0.4,2-0.9,3-1.3
		c3.6-1.8,7.3-3.5,10.9-5.3c5.6-2.8,11.2-5.6,16.8-8.4c5.1-2.5,10.2-5,15.2-7.6c2.3-1.2,4.4-2.7,5.6-5.1c1.5-3,2.1-6.2,2.3-9.5
		c0.3-5.4,0.1-10.7-2.3-15.7c-0.4-1.4-0.9-2.7-1.3-4.1c0-0.2-0.1-0.4-0.1-0.5C146.6,72.6,146.7,72.4,146.7,72.2z"/>
	<path id="XMLID_144_" class="st1" d="M21.9,74.8c-0.1-0.7-0.2-1.4-0.2-2.1c-0.2-1.5-0.5-3.1-0.8-4.6c0-0.2-0.3-0.4-0.5-0.6
		c-0.1-0.6-0.2-1.2-0.3-1.7c0-0.3-0.1-0.6-0.1-0.9c-0.1-1.2-0.1-2.3-0.2-3.5c0-1,0-2.1,0-3.1c0.1-1.1,0.1-2.1,0.2-3.2
		c0-0.2,0-0.4,0.1-0.6c0.4-4,1.5-7.8,4.8-10.3c1.6-1.3,3.6-2.2,5.4-3.2c8.4-4.4,16.9-8.7,25.3-13c4.6-2.3,9.2-4.5,13.8-6.7
		c3.7-1.8,7.3-3.5,10.9-5.3c3-1.5,6.1-1.6,9.1-0.1c5.9,2.9,11.8,5.9,17.7,8.9c8,4,16,7.9,24,11.8c2.1,1,4.1,1.9,6.2,2.9
		c0.6,0.4,1.2,0.7,1.9,1.1c0.3,0.2,0.7,0.4,1,0.7c0.5,0.4,1,0.7,1.5,1.1c0.3,0.2,0.5,0.4,0.8,0.6c0.3,0.3,0.6,0.6,1,0.8
		c0.2,0.2,0.4,0.4,0.6,0.6c0.2,0.4,0.4,0.7,0.6,1.2c-2.5,1.3-5,2.6-7.5,3.9c-8.6,4.3-17.1,8.6-25.7,12.9
		c-7.6,3.8-15.2,7.6-22.7,11.5c-1.5,0.8-3.1,1.6-4.2,2.8c-1,1-1.5,2.4-2,3.7c-2.2,6.7-2.2,13.4,0,20c0.5,1.6,1.5,3.1,2.3,4.7
		c6.2-3.1,12.2-6.1,18.1-9.1c8.2-4.1,16.4-8.3,24.7-12.4c5.7-2.9,11.3-5.7,17-8.6c0.9-0.4,1.5-0.4,2.1,0.3c0.4,0.7,0.9,1.5,1.3,2.2
		c2.4,5,2.6,10.3,2.3,15.7c-0.2,3.3-0.8,6.5-2.3,9.5c-1.3,2.4-3.3,3.9-5.6,5.1c-5.1,2.6-10.2,5.1-15.2,7.6
		c-5.6,2.8-11.2,5.6-16.8,8.4c-3.6,1.8-7.3,3.6-10.9,5.3c-1,0.4-2,0.9-3,1.3c-0.1,0.1-0.2,0.1-0.4,0.2c-0.8,0.4-1.7,0.8-2.5,1.2
		c-0.1,0.1-0.3,0.1-0.4,0.2c-0.7,0.4-1.5,0.9-2.2,1.3l-0.1,0.1l-0.1,0c-1.3,0.5-2.5,1.1-3.8,1.4c-1,0.3-2.1,0.3-3.2,0.5
		c-0.7-0.2-1.4-0.4-2-0.5c-0.8-0.4-1.6-0.7-2.5-1.1c-0.2-0.1-0.5-0.2-0.7-0.3c-0.9-0.5-1.8-0.9-2.8-1.4c-0.1,0-0.3-0.1-0.4-0.1
		c-0.8-0.4-1.7-0.9-2.5-1.3c-0.1-0.1-0.3-0.1-0.4-0.2c-0.8-0.4-1.6-0.8-2.4-1.3l-0.1,0c0,0-0.1-0.1-0.1-0.1c-0.6-0.3-1.3-0.7-1.9-1
		c-0.5-0.2-1-0.5-1.5-0.7c-0.8-0.4-1.6-0.9-2.5-1.3c-0.1,0-0.3-0.1-0.4-0.1c-0.8-0.4-1.6-0.9-2.5-1.3c-0.1,0-0.3-0.1-0.4-0.1
		c-0.6-0.3-1.3-0.7-1.9-1c-0.5-0.2-1-0.5-1.5-0.7c-0.6-0.3-1.2-0.7-1.9-1l-0.1,0l-0.1-0.1c-0.9-0.5-1.8-0.9-2.6-1.4
		c-0.3-0.1-0.5-0.2-0.8-0.3c-0.6-0.3-1.3-0.7-1.9-1c-0.3-0.1-0.6-0.3-1-0.4c-0.6-0.3-1.3-0.7-1.9-1c-0.5-0.2-1-0.4-1.5-0.7
		c-0.6-0.3-1.3-0.7-1.9-1c-0.1-0.1-0.2-0.1-0.4-0.2c-0.8-0.4-1.6-0.9-2.4-1.3c-0.2-0.1-0.5-0.2-0.7-0.4c-0.5-0.2-0.9-0.5-1.4-0.7
		c-0.5-0.2-1-0.5-1.5-0.7c-0.5-0.2-0.9-0.5-1.4-0.7c-0.5-0.2-1-0.5-1.5-0.7c-0.6-0.3-1.3-0.7-1.9-1c-0.3-0.1-0.6-0.3-1-0.4
		c-0.7-0.4-1.4-0.7-2.1-1.1c-0.3-0.1-0.5-0.3-0.8-0.4c-0.6-0.4-1.3-0.9-1.9-1.3c-0.4-0.5-0.9-1-1.3-1.5c0.1-0.2,0.2-0.4,0.3-0.6
		c0.3,0.1,0.6,0.2,0.9,0.3c0.5,0.2,0.9,0.5,1.4,0.7c0.7,0.3,1.4,0.7,2.1,1c0.2,0.1,0.4,0.2,0.6,0.3c0.8,0.4,1.5,0.8,2.3,1.2
		c0.4,0.2,0.9,0.5,1.3,0.7c0.7,0.3,1.4,0.7,2.1,1c0.3,0.1,0.5,0.3,0.8,0.4c0.7,0.3,1.4,0.7,2.1,1c0.3,0.1,0.5,0.3,0.8,0.4
		c5.4,2.7,10.8,5.4,16.2,8.2c0.2,0.1,0.4,0.2,0.6,0.3c1.9,1,3.8,1.9,5.7,2.9c0.2,0.1,0.4,0.2,0.6,0.3c1,0.5,1.9,1,2.9,1.4
		c0.3,0.1,0.5,0.3,0.8,0.4c0.5,0.2,1,0.5,1.5,0.7c0.5,0.2,0.9,0.5,1.4,0.7c0.7,0.4,1.4,0.7,2.1,1.1c0.2,0.1,0.4,0.2,0.6,0.3
		c4,2,8.1,4,12.1,6c0.4,0.2,0.9,0.2,1.4,0.2c0.2-0.3,0.3-0.5,0.5-0.8c0.8-2.8,1.9-5.5,2.2-8.4c0.6-5.1,0.4-10.2-1.6-15.1
		c-0.8-2-1.9-3.8-4.1-4.7c-2.4-1-4.6-2.3-6.9-3.4c-9.2-4.6-18.3-9.2-27.5-13.8c-6.4-3.2-12.8-6.5-19.1-9.7c-1.6-0.8-3.3-1.6-5.1-2.4
		c0.3,1.1,0.7,1.9,0.7,2.7c-0.2,1.4,0.5,2,1.6,2.4c0.3,0.1,0.5,0.3,0.7,0.4c0.3,0.1,0.5,0.3,0.8,0.4c5.3,2.7,10.6,5.5,15.9,8.2
		c0.4,0.2,0.9,0.5,1.3,0.7c8.3,4.3,16.5,8.5,24.8,12.8c0.5,0.2,0.9,0.5,1.4,0.7c3.7,1.8,7.3,3.8,11,5.5c1.6,0.7,1.7,1.8,1.4,3.2
		c-0.1,0-0.3,0-0.4,0.1c-1.6-0.8-3.1-1.6-4.7-2.4c-0.3-0.1-0.5-0.3-0.8-0.4c-2.5-1.3-5-2.6-7.5-3.9c-0.2-0.1-0.4-0.2-0.6-0.3
		c-2.8-1.4-5.6-2.9-8.3-4.3c-0.3-0.1-0.5-0.3-0.8-0.4c-6.4-3.3-12.9-6.6-19.3-9.9c-0.3-0.2-0.6-0.3-0.9-0.5
		c-1.7-0.9-3.4-1.8-5.1-2.7c-0.3-0.1-0.5-0.3-0.8-0.4c-0.7-0.3-1.4-0.7-2.1-1c-0.3-0.1-0.5-0.3-0.8-0.4c-2.1-1-4.1-2.1-6.3-3.1
		c0,0.5,0,0.8-0.1,1.2c-0.3,1.5,0.3,2.4,1.8,3c3.8,1.8,7.4,3.8,11.1,5.8c0.3,0.1,0.5,0.3,0.8,0.4c5.5,2.8,11,5.7,16.4,8.5
		c0.3,0.2,0.6,0.3,1,0.5c1.7,0.9,3.4,1.8,5.1,2.7c0.3,0.1,0.5,0.3,0.8,0.4c0.7,0.3,1.4,0.7,2.1,1c0.3,0.1,0.5,0.3,0.8,0.4
		c1.4,0.7,2.7,1.4,4.1,2.1c0.3,0.2,0.7,0.3,1,0.5c1,0.5,2,1,3,1.6c0.3,0.1,0.5,0.3,0.8,0.4c2.5,1.3,5,2.6,7.5,3.9
		c0.3,0.1,0.5,0.3,0.8,0.4c1.8,0.3,1.7,1.6,1.5,3c-0.2,0-0.3,0.1-0.5,0.1c-0.5-0.2-1-0.5-1.5-0.7c-0.2-0.1-0.4-0.2-0.6-0.3
		c-1-0.5-1.9-1-2.9-1.5c-0.3-0.1-0.5-0.3-0.8-0.4c-7.5-3.9-15-7.7-22.5-11.6c-0.3-0.2-0.5-0.3-0.8-0.5c-2.3-1.2-4.6-2.4-7-3.6
		c-0.3-0.2-0.6-0.3-1-0.5c-2.6-1.4-5.3-2.7-7.9-4.1c-0.2-0.1-0.4-0.2-0.6-0.3c-1-0.5-1.9-1-2.9-1.5c-0.3-0.1-0.5-0.3-0.8-0.4
		c-1.6-0.8-3.1-1.6-4.7-2.4c-0.5-0.2-0.9-0.5-1.4-0.7c-1-0.5-2-0.9-3.2-1.5c0,1.2,0,2.2,0,3.1c2.4,1.3,4.8,2.5,7.1,3.8
		c0.2,0.1,0.4,0.2,0.6,0.3c2.8,1.4,5.6,2.9,8.3,4.3c0.3,0.1,0.5,0.3,0.8,0.4c0.9,0.4,1.8,0.9,2.6,1.3c0.3,0.1,0.5,0.3,0.8,0.4
		c1.4,0.7,2.8,1.4,4.1,2.1c0.2,0.1,0.4,0.2,0.6,0.3c2.8,1.4,5.6,2.9,8.3,4.3c0.2,0.1,0.4,0.2,0.6,0.3c2.8,1.4,5.6,2.9,8.3,4.3
		c0.2,0.1,0.4,0.2,0.6,0.3c2.6,1.3,5.2,2.7,7.8,4c0.3,0.2,0.6,0.3,1,0.5c1.9,0.9,3.7,1.9,5.6,2.7c1.6,0.7,2.2,1.7,1.7,3.3
		c-0.1,0-0.3,0.1-0.4,0.1c-1.4-0.7-2.8-1.4-4.1-2.1c-0.4-0.2-0.8-0.4-1.1-0.6c-0.8-0.4-1.5-0.8-2.3-1.2c-0.3-0.1-0.5-0.3-0.8-0.4
		c-1.6-0.8-3.1-1.6-4.7-2.4c-0.2-0.1-0.4-0.2-0.6-0.3c-3.7-1.9-7.5-3.8-11.2-5.8c-0.2-0.1-0.4-0.2-0.6-0.3c-3-1.5-5.9-3.1-8.9-4.6
		c-0.3-0.1-0.5-0.3-0.8-0.4c-2.3-1.2-4.7-2.4-7-3.6c-0.3-0.2-0.6-0.4-0.9-0.5c-2.7-1.4-5.3-2.7-8-4.1c-0.2-0.1-0.4-0.2-0.6-0.3
		c-2.2-1.1-4.5-2.2-6.7-3.4c0,2.8,0,2.7,2.3,3.9c2.8,1.4,5.6,3,8.5,4.4c0.5,0.2,0.9,0.5,1.4,0.7c5.5,2.8,11,5.7,16.4,8.5
		c0.3,0.1,0.5,0.3,0.8,0.4c0.7,0.3,1.4,0.7,2.1,1c0.3,0.1,0.5,0.3,0.8,0.4c2.5,1.3,5,2.5,7.5,3.8c4.8,2.5,9.6,5,14.4,7.5
		c0.5,0.2,0.9,0.5,1.4,0.7c0.6,0.3,1.1,0.5,1.7,0.8c1.8,0.8,2,1.4,1.3,3.5c-4.3-2.3-8.7-4.5-13-6.8c-0.3-0.1-0.5-0.3-0.8-0.4
		c-2.5-1.3-5-2.6-7.5-3.9c-0.5-0.2-0.9-0.5-1.4-0.7c-1.4-0.7-2.9-1.4-4.3-2.1c-4-2.1-8.1-4.2-12.1-6.4c-0.3-0.1-0.5-0.3-0.8-0.4
		c-1.4-0.7-2.7-1.4-4.1-2.1c-0.2-0.1-0.4-0.2-0.6-0.3c-2.8-1.4-5.6-2.9-8.3-4.3c-0.2-0.1-0.4-0.2-0.6-0.3c-1-0.5-1.9-1-2.9-1.5
		c-0.3-0.1-0.5-0.3-0.8-0.4c-0.5-0.1-1-0.3-1.5-0.4c-0.2,0-0.5,0-0.7,0c0-0.4-0.1-0.8-0.1-1.1c0.4-0.7,0.6-1.4-0.2-2
		c0-0.4-0.1-0.8-0.1-1.1c0.4-0.8,0.7-1.6-0.2-2.3c0-0.2,0-0.4,0-0.6c-0.1-1.1-0.2-2.1-0.2-3.2c0-0.4,0-0.8-0.1-1.2
		c0-0.8-0.1-1.5-0.1-2.3c0-0.5,0-1-0.1-1.5c-0.2-2.9-0.4-5.9-0.6-8.8C22.4,76.1,22.1,75.4,21.9,74.8z M119.5,97.7
		c-1.7,0.8-3.1,1.5-4.4,2.2c-0.4,0.2-0.7,0.8-0.8,1.3c-0.2,0.8,0.5,1.4,0.8,2c0.9,2.1-0.5,3.8-3.1,4c0.1-1-0.2-2.4,0.3-2.9
		c1.1-1,0.7-2.1,0.8-3.4c-1.7,0.8-3.2,1.6-4.7,2.4c-0.6,0.3-0.9,2.7-0.4,2.8c1.2,0.3,0.7,1.2,0.7,1.8c0,2.2,0,4.4-0.1,6.6
		c0,0.4,0,0.9-0.2,1.1c-1.2,0.9-0.6,2-0.6,3.3c1.2-0.6,2.2-1.2,3.2-1.6c2.1-1,2.1-1,2-3.5c-0.3-0.1-0.6-0.1-0.9-0.2
		c-0.1-3.3,0.2-3.8,3-4.3c0,1,0.4,2.5-0.1,2.9c-1.2,1.1-0.6,2.1-0.7,3.4c1.7-0.8,3.4-1.4,4.7-2.4c0.5-0.4,0.3-1.9,0.4-2.8
		c-1.4,0.1-0.8-0.9-0.8-1.5c0-2.2,0-4.5,0.1-6.7c0-0.4,0-0.9,0.2-1.1C120,100.2,119.3,99,119.5,97.7z M102.8,107.6
		c-1.4-1-2.1-1.1-3.3-0.3c-2.6,1.6-4,3.9-4,7c0,2.1,0.8,2.9,2.9,2.9c1.1,0,2.1,0,3.3,0c0,1.4-0.8,2.1-1.9,2.3
		c-0.6,0.1-1.3-0.5-2-0.7c0-0.2,0-0.3,0-0.5c-0.9,0.6-2.4,1-2.6,1.8c-0.4,1.5-0.1,3.2-0.1,5c1.5-0.7,3.1-0.8,3-2.5
		c0.9,0,1.9,0.2,2.7,0c2.9-0.9,5.2-4.2,5.1-7.2c-0.1-1.8-0.9-2.7-2.6-2.8c-0.9-0.1-1.8,0.1-2.7,0c-1.1-0.1-1.5-0.8-0.8-1.6
		c0.4-0.5,1.2-1.1,1.7-1c0.5,0,1,0.8,1.7,1.4c0.3-0.1,0.8-0.3,1.3-0.6c0.4-0.3,1.1-0.7,1.1-1.1c0.1-1.5,0.1-3.1,0.1-4.9
		C104.4,105.3,102.7,105.4,102.8,107.6z M68.4,82.6c-0.1-0.1-0.3-0.2-0.4-0.3c0.7-0.9-0.7-2.2,1-3c0.2-0.1,0.2-1.9-0.3-2.3
		c-1.3-1-2.9-1.5-4.4-2.3c-0.4,1.6-0.4,1.6,0.4,2.9c0.1,0.2,0.2,0.5,0.2,0.8c-0.1,2.4-0.2,4.8-0.3,7.2c0,0.3-0.2,0.7-0.5,0.9
		c-0.7,0.5-0.8,2.2,0,2.7c1.4,0.8,2.8,1.5,4.3,2.2c0.1-0.1,0.3-0.1,0.4-0.2c-0.3-0.9-0.5-1.9-0.9-2.7c-0.5-1,0.1-2.4,1.3-2.7
		c0.4,1.2,0.9,2.5,1.3,3.5c-0.4,0.4-0.8,0.7-0.8,1c0,0.7,0,1.7,0.4,1.9c1.8,1.1,3.7,2,5.5,2.9c0.1-0.3,0.2-0.4,0.2-0.5
		c0.5-1.3-0.6-2.1-1.1-3.1c-1.1-2.4-1.8-4.9-2.8-7.5c1.1-0.5,2.1-1,3.4-1.6c-0.1-0.4,0-1.6-0.4-1.9c-1.4-1-3.1-1.7-4.9-2.7
		c0.1,1.4-0.6,2.6,1.1,3.2C70.2,81.5,69.3,82.1,68.4,82.6z M121,104.8c0.1,0.9,0.1,1.7,0.3,2.5c0.5,2.3,2,3.5,3.9,2.9
		c1.2-0.3,2.4-0.9,3.3-1.7c4-3.5,4.8-8.1,3.7-13.1c-0.5-2.4-2-3.1-4.3-2.3c-0.6,0.2-1.2,0.5-1.8,0.9
		C122.3,96.7,121.1,100.5,121,104.8z M49.8,74c0-4.8-2.1-8.4-5.9-10.1c-2.2-1-4.1-0.3-4.9,1.9c-1.4,3.9-0.6,10.5,4.8,13.4
		c2.9,1.5,5.2,0.4,5.7-2.9C49.7,75.5,49.8,74.7,49.8,74z M27.4,55.6c-0.2,0.1-0.3,0.2-0.5,0.3c0.1,0.8,0.2,1.6,0.4,2.4
		c0.1,0.5,0.5,1.1,0.5,1.6c0.1,0.8,0.1,1.6-0.1,2.3c-0.5,1.8,1,4.1-1.1,5.6c0,0,0,0.2,0,0.3c-0.2,1.1,0,2,1.3,2.5
		c1.6,0.6,3,1.6,4.6,2.3c0.7,0.3,1.4,0.6,2.1,0.8c1.5,0.3,2.1-0.2,2.4-1.7c0.5-2.1-0.4-3.7-1.7-5.4c1.6-0.6,1.8-1.9,1.4-3.1
		c-0.3-1.2-0.9-2.7-1.8-3.4C32.6,58.4,30,57.1,27.4,55.6z M62.5,80.9c-0.1-1-0.1-1.9-0.2-2.9c-0.6-3.7-2.6-6.4-6.2-7.8
		c-1.7-0.7-3.2-0.2-4,1.4c-0.5,0.9-0.7,1.9-0.9,2.8c-0.7,5.1,1.9,9.8,6.2,11.5c2.3,0.9,4,0.1,4.7-2.3C62.3,82.8,62.3,81.8,62.5,80.9
		z M138.4,100.4c-0.4-2.1,0.1-3.4,2.1-4.5c2.6-1.4,3.7-3.9,3.4-6.9c-0.2-1.8-1.2-2.5-2.9-1.9c-2.2,0.8-4.4,1.9-6.4,3.1
		c-0.5,0.3-0.2,1.8-0.3,2.7c0.9-0.2,0.7,0.5,0.7,1c0,2.6-0.1,5.2-0.1,7.7c0,0.2,0,0.6-0.1,0.7c-1.3,0.8-0.6,2-0.8,3.1
		c0.2,0,0.3,0.1,0.4,0.1c1-0.5,2-0.9,3-1.4c2.2-1.1,2.1-1.1,1.9-3.6C139,100.4,138.7,100.4,138.4,100.4z"/>
	<path id="XMLID_143_" class="st2" d="M146.7,75.2c-0.6-0.7-1.2-0.7-2.1-0.3c-5.6,2.9-11.3,5.8-17,8.6c-8.2,4.1-16.4,8.3-24.7,12.4
		c-5.9,3-11.8,6-18.1,9.1c-0.8-1.6-1.8-3-2.3-4.7c-2.2-6.7-2.2-13.4,0-20c0.4-1.3,1-2.8,2-3.7c1.2-1.2,2.7-2,4.2-2.8
		c7.6-3.9,15.2-7.6,22.7-11.5c8.6-4.3,17.1-8.6,25.7-12.9c2.5-1.3,5-2.6,7.5-3.9c-0.3-0.5-0.4-0.9-0.6-1.2c0.3,0.2,0.7,0.3,0.8,0.5
		c0.5,1.4,1.1,2.9,1.5,4.4c0.1,0.2-0.2,0.6-0.4,0.9c-0.1-0.1-0.2-0.2-0.4-0.3c0-0.2-0.1-0.4-0.1-0.5c-0.1-0.2-0.2-0.4-0.3-0.6
		c-0.1,0.2-0.1,0.4-0.2,0.6c-0.3,0.2-0.6,0.5-0.9,0.7c-6.4,3.2-12.8,6.5-19.2,9.7c-6.3,3.2-12.7,6.4-19,9.6
		c-6.2,3.1-12.4,6.3-18.7,9.4c-2.2,1.1-2.2,1.2-1.8,3.7c0.7-0.4,1.3-0.7,2-1.1C98,76,108.5,70.7,119,65.4
		c7.4-3.7,14.8-7.5,22.2-11.2c1.3-0.7,2.7-1.1,4-1.7c0,1,0,2,0,3c-4.6,2.3-9.1,4.6-13.7,6.9c-8.5,4.3-17,8.5-25.4,12.8
		c-6.5,3.3-12.9,6.5-19.4,9.8c-1.6,0.8-1.8,1.4-1.2,3.2c0.1,0,0.2,0,0.3,0c8.1-4.1,16.2-8.1,24.3-12.2c11.3-5.7,22.6-11.5,34-17.2
		c0.3-0.2,0.8-0.1,1.1-0.1c0,1.1,0,2.1,0.1,3.2c-0.4,0.1-0.8,0-1.2,0.2c-3,1.5-6,3-9,4.5c-7.6,3.8-15.2,7.7-22.7,11.5
		c-8.5,4.3-17,8.6-25.5,12.9c-1.9,1-1.9,1.1-1.4,3.4c0.4-0.2,0.8-0.3,1.2-0.5c3.4-1.7,6.8-3.5,10.2-5.2c8.4-4.2,16.8-8.4,25.2-12.6
		c6.8-3.4,13.6-6.9,20.5-10.3c1.7-0.8,3.2-1.7,2.7-3.9c0.1,1.9,0.2,3.7,0.2,5.6c-0.2,0.1-0.4,0.3-0.6,0.4
		c-6.3,3.1-12.5,6.2-18.8,9.4c-6.3,3.1-12.5,6.3-18.8,9.5c-6.7,3.4-13.5,6.8-20.2,10.2c-2,1-2,1.1-1.8,3.6c0.4-0.1,0.7-0.2,1.1-0.4
		c7.9-4,15.7-8,23.6-11.9c10.1-5.1,20.3-10.2,30.4-15.4c1.9-1,4.4-1.2,5-3.9c1.1,0.1,0.6-0.8,0.6-1.1c0-5.4,0-10.7,0-16.1
		c0.2,0.3,0.5,0.7,0.5,1c0,5.4,0,10.8,0,16.2c0,0.3-0.2,0.6-0.3,0.9c-0.1,0-0.2,0-0.3,0c-0.1-0.3-0.2-0.5-0.3-0.8
		c-0.1,0.3-0.2,0.5-0.3,0.8c0,0.2,0,0.4,0,0.6c0.2,1.1,0.4,2.1,0.5,3.2C146.3,74.2,146.5,74.7,146.7,75.2z"/>
	<path id="XMLID_142_" class="st2" d="M35,94.3c1,0.5,1.9,1,2.9,1.5c0.2,0.1,0.4,0.2,0.6,0.3c2.6,1.4,5.3,2.7,7.9,4.1
		c0.3,0.2,0.6,0.3,1,0.5c2.3,1.2,4.6,2.4,7,3.6c0.3,0.2,0.5,0.3,0.8,0.5c7.5,3.9,15,7.7,22.5,11.6c0.3,0.1,0.5,0.3,0.8,0.4
		c1,0.5,1.9,1,2.9,1.5c0.2,0.1,0.4,0.2,0.6,0.3c0.5,0.2,1,0.5,1.5,0.7c0.1,0.1,0.3,0.2,0.4,0.3c0-0.2,0.1-0.3,0.1-0.5
		c0.2-1.3,0.3-2.6-1.5-3c-0.3-0.1-0.5-0.3-0.8-0.4c-2.5-1.3-5-2.6-7.5-3.9c-0.3-0.1-0.5-0.3-0.8-0.4c-1-0.5-2-1-3-1.6
		c-0.3-0.2-0.7-0.3-1-0.5c-1.4-0.7-2.7-1.4-4.1-2.1c-0.3-0.1-0.5-0.3-0.8-0.4c-0.7-0.3-1.4-0.7-2.1-1c-0.3-0.1-0.5-0.3-0.8-0.4
		c-1.7-0.9-3.4-1.8-5.1-2.7c-0.3-0.2-0.6-0.3-1-0.5c-5.5-2.8-11-5.7-16.4-8.5c-0.3-0.1-0.5-0.3-0.8-0.4c-3.7-1.9-7.4-3.9-11.1-5.8
		c-1.4-0.7-2.1-1.5-1.8-3c0.1-0.3,0-0.7,0.1-1.2c2.2,1.1,4.2,2.1,6.3,3.1c0.3,0.1,0.5,0.3,0.8,0.4c0.7,0.3,1.4,0.7,2.1,1
		c0.3,0.1,0.5,0.3,0.8,0.4c1.7,0.9,3.4,1.8,5.1,2.7c0.3,0.2,0.6,0.3,0.9,0.5c6.4,3.3,12.9,6.6,19.3,9.9c0.3,0.1,0.5,0.3,0.8,0.4
		c2.8,1.4,5.6,2.9,8.3,4.3c0.2,0.1,0.4,0.2,0.6,0.3c2.5,1.3,5,2.6,7.5,3.9c0.3,0.1,0.5,0.3,0.8,0.4c1.6,0.8,3.1,1.6,4.7,2.4
		c0.1,0,0.3,0,0.4-0.1c0.3-1.4,0.2-2.5-1.4-3.2c-3.7-1.7-7.3-3.6-11-5.5c-0.5-0.2-0.9-0.5-1.4-0.7c-8.3-4.3-16.5-8.5-24.8-12.8
		c-0.4-0.2-0.9-0.5-1.3-0.7c-5.3-2.7-10.6-5.5-15.9-8.2c-0.3-0.1-0.5-0.3-0.8-0.4c-0.2-0.1-0.5-0.3-0.7-0.4c-1.1-0.4-1.8-1-1.6-2.4
		c0.1-0.8-0.4-1.6-0.7-2.7c1.8,0.9,3.5,1.6,5.1,2.4c6.4,3.2,12.8,6.5,19.1,9.7c9.1,4.6,18.3,9.2,27.5,13.8c2.3,1.2,4.5,2.4,6.9,3.4
		c2.2,0.9,3.3,2.7,4.1,4.7c2,4.9,2.3,10,1.6,15.1c-0.4,2.8-1.5,5.6-2.2,8.4c-0.2,0.3-0.3,0.5-0.5,0.8c-0.5-0.1-1,0-1.4-0.2
		c-4.1-2-8.1-4-12.1-6c-0.2-0.1-0.4-0.2-0.6-0.3c-0.7-0.4-1.4-0.7-2.1-1.1c-0.5-0.2-0.9-0.5-1.4-0.7c-0.5-0.2-1-0.5-1.5-0.7
		c-0.3-0.1-0.5-0.3-0.8-0.4c-1-0.5-1.9-1-2.9-1.4c-0.2-0.1-0.4-0.2-0.6-0.3c-1.9-1-3.8-1.9-5.7-2.9c-0.2-0.1-0.4-0.2-0.6-0.3
		c-5.4-2.7-10.8-5.4-16.2-8.2c-0.3-0.1-0.5-0.3-0.8-0.4c-0.7-0.3-1.4-0.7-2.1-1c-0.3-0.1-0.5-0.3-0.8-0.4c-0.7-0.3-1.4-0.7-2.1-1
		c-0.4-0.2-0.9-0.5-1.3-0.7c-0.8-0.4-1.5-0.8-2.3-1.2c-0.2-0.1-0.4-0.2-0.6-0.3c-0.7-0.3-1.4-0.7-2.1-1c-0.5-0.2-0.9-0.5-1.4-0.7
		c-0.3-0.1-0.6-0.2-0.9-0.3c-0.3,0-0.6,0-0.9,0c-0.2-0.6-0.3-1.2-0.5-1.7l0.1,0l0.1,0c0,0.3,0.1,0.6,0.1,0.8c0.1,0,0.1,0,0.2,0
		c0-0.3,0-0.6,0-0.8c0-0.4,0-0.8,0-1.1c0-0.3,0-0.6,0-0.9c0.5,0.1,1,0.3,1.5,0.4c0.3,0.1,0.5,0.3,0.8,0.4c1,0.5,1.9,1,2.9,1.5
		c0.2,0.1,0.4,0.2,0.6,0.3c2.8,1.4,5.6,2.9,8.3,4.3c0.2,0.1,0.4,0.2,0.6,0.3c1.4,0.7,2.7,1.4,4.1,2.1c0.3,0.1,0.5,0.3,0.8,0.4
		c4,2.1,8.1,4.2,12.1,6.4c1.4,0.7,2.9,1.4,4.3,2.1c0.5,0.2,0.9,0.5,1.4,0.7c2.5,1.3,5,2.6,7.5,3.9c0.3,0.1,0.5,0.3,0.8,0.4
		c4.3,2.3,8.6,4.5,13,6.8c0.6-2.1,0.4-2.7-1.3-3.5c-0.6-0.3-1.1-0.5-1.7-0.8c-0.5-0.2-0.9-0.5-1.4-0.7c-4.8-2.5-9.6-5-14.4-7.5
		c-2.5-1.3-5-2.5-7.5-3.8c-0.3-0.1-0.5-0.3-0.8-0.4c-0.7-0.3-1.4-0.7-2.1-1c-0.3-0.1-0.5-0.3-0.8-0.4c-5.5-2.8-11-5.7-16.4-8.5
		c-0.5-0.2-0.9-0.5-1.4-0.7c-2.8-1.5-5.6-3-8.5-4.4c-2.3-1.2-2.3-1.1-2.3-3.9c2.3,1.1,4.5,2.3,6.7,3.4c0.2,0.1,0.4,0.2,0.6,0.3
		c2.7,1.4,5.3,2.7,8,4.1c0.3,0.2,0.6,0.4,0.9,0.5c2.3,1.2,4.7,2.4,7,3.6c0.3,0.1,0.5,0.3,0.8,0.4c3,1.5,5.9,3.1,8.9,4.6
		c0.2,0.1,0.4,0.2,0.6,0.3c3.7,1.9,7.5,3.8,11.2,5.8c0.2,0.1,0.4,0.2,0.6,0.3c1.6,0.8,3.1,1.6,4.7,2.4c0.3,0.1,0.5,0.3,0.8,0.4
		c0.8,0.4,1.5,0.8,2.3,1.2c0.4,0.2,0.8,0.4,1.1,0.6c1.4,0.7,2.8,1.4,4.1,2.1c0.1,0,0.3-0.1,0.4-0.1c0.5-1.6-0.2-2.7-1.7-3.3
		c-1.9-0.8-3.8-1.8-5.6-2.7c-0.3-0.2-0.6-0.3-1-0.5c-2.6-1.3-5.2-2.7-7.8-4c-0.2-0.1-0.4-0.2-0.6-0.3c-2.8-1.4-5.6-2.9-8.3-4.3
		c-0.2-0.1-0.4-0.2-0.6-0.3c-2.8-1.4-5.6-2.9-8.3-4.3c-0.2-0.1-0.4-0.2-0.6-0.3c-1.4-0.7-2.8-1.4-4.1-2.1c-0.3-0.1-0.5-0.3-0.8-0.4
		c-0.9-0.4-1.8-0.9-2.6-1.3c-0.3-0.1-0.5-0.3-0.8-0.4c-2.8-1.4-5.6-2.9-8.3-4.3c-0.2-0.1-0.4-0.2-0.6-0.3c-2.3-1.2-4.7-2.5-7.1-3.8
		c0-0.9,0-1.9,0-3.1c1.1,0.5,2.1,1,3.2,1.5c0.5,0.2,0.9,0.5,1.4,0.7c1.6,0.8,3.1,1.6,4.7,2.4C34.4,94,34.7,94.1,35,94.3z"/>
	<path id="XMLID_141_" class="st3" d="M145.6,49.7c0.1,0.1,0.2,0.2,0.4,0.3c0.1,0.6,0.1,1.1,0.2,1.7c0,5.4,0,10.7,0,16.1
		c0,0.4,0.5,1.3-0.6,1.1c0-0.2,0-0.4,0-0.6c0-0.3,0-0.6-0.1-1c-0.1-1.9-0.2-3.7-0.2-5.6l0,0c0-1.1,0-2.1-0.1-3.2c0-1.1,0-2.2,0-3.3
		c0-1,0-2,0-3C145.4,51.6,145.5,50.7,145.6,49.7z"/>
	<path id="XMLID_140_" class="st4" d="M21.9,74.8c0.2,0.7,0.5,1.3,0.6,2c0.3,2.9,0.4,5.9,0.6,8.8C22.7,82,22.3,78.4,21.9,74.8z"/>
	<path id="XMLID_139_" class="st5" d="M83.8,135.3c1.1-0.2,2.1-0.2,3.2-0.5c1.3-0.4,2.5-0.9,3.8-1.4C88.7,135,86.5,135.9,83.8,135.3
		z"/>
	<path id="XMLID_138_" class="st6" d="M146.7,75.2c-0.2-0.5-0.4-1-0.6-1.5c0.2-0.1,0.4-0.2,0.6-0.3c0.4,1.4,0.9,2.7,1.3,4.1
		C147.6,76.7,147.1,75.9,146.7,75.2z"/>
	<path id="XMLID_137_" class="st4" d="M20.3,67.6c0.2,0.2,0.5,0.3,0.5,0.6c0.3,1.5,0.5,3,0.8,4.6C21.2,71,20.8,69.3,20.3,67.6z"/>
	<path id="XMLID_136_" class="st3" d="M146.7,73.3c-0.2,0.1-0.4,0.2-0.6,0.3c-0.2-1.1-0.4-2.1-0.5-3.2c0.2,0,0.4,0,0.6,0
		c0.1,0.4,0.2,0.7,0.3,1.1c0,0.2,0,0.4-0.1,0.6c0,0.2,0.1,0.4,0.1,0.6C146.6,73,146.7,73.2,146.7,73.3z"/>
	<path id="XMLID_135_" class="st4" d="M23.3,90.6c0.1,1.1,0.2,2.1,0.2,3.2C23.4,92.7,23.4,91.6,23.3,90.6z"/>
	<path id="XMLID_134_" class="st4" d="M19.8,58.4c0,1,0,2.1,0,3.1C19.8,60.5,19.8,59.5,19.8,58.4z"/>
	<path id="XMLID_133_" class="st5" d="M96.4,130.5c1-0.4,2-0.9,3-1.3C98.4,129.6,97.4,130,96.4,130.5z"/>
	<path id="XMLID_132_" class="st5" d="M75.9,132c0.9,0.5,1.8,0.9,2.8,1.4C77.7,132.9,76.8,132.5,75.9,132z"/>
	<path id="XMLID_131_" class="st5" d="M52.7,120.2c0.9,0.5,1.8,0.9,2.6,1.4C54.5,121.1,53.6,120.6,52.7,120.2z"/>
	<path id="XMLID_130_" class="st5" d="M40.9,114.2c0.8,0.4,1.6,0.9,2.4,1.3C42.5,115,41.7,114.6,40.9,114.2z"/>
	<path id="XMLID_129_" class="st5" d="M70.2,129.1c0.8,0.4,1.6,0.8,2.4,1.3C71.8,130,71,129.5,70.2,129.1z"/>
	<path id="XMLID_128_" class="st5" d="M91,133.3c0.7-0.4,1.5-0.9,2.2-1.3C92.4,132.4,91.7,132.9,91,133.3z"/>
	<path id="XMLID_127_" class="st5" d="M93.6,131.8c0.8-0.4,1.7-0.8,2.5-1.2C95.2,131,94.4,131.4,93.6,131.8z"/>
	<path id="XMLID_126_" class="st5" d="M73,130.6c0.8,0.4,1.7,0.9,2.5,1.3C74.6,131.4,73.8,131,73,130.6z"/>
	<path id="XMLID_125_" class="st4" d="M23.1,87.1c0,0.8,0.1,1.5,0.1,2.3C23.2,88.6,23.2,87.9,23.1,87.1z"/>
	<path id="XMLID_124_" class="st5" d="M64.1,126c0.8,0.4,1.6,0.9,2.5,1.3C65.7,126.8,64.9,126.4,64.1,126z"/>
	<path id="XMLID_123_" class="st4" d="M23.5,94.3c0.9,0.7,0.6,1.5,0.2,2.3C23.7,95.8,23.6,95.1,23.5,94.3z"/>
	<path id="XMLID_122_" class="st5" d="M61.2,124.5c0.8,0.4,1.6,0.9,2.5,1.3C62.9,125.4,62.1,125,61.2,124.5z"/>
	<path id="XMLID_121_" class="st5" d="M29.5,108.4c0.7,0.4,1.4,0.7,2.1,1.1C30.8,109.1,30.1,108.8,29.5,108.4z"/>
	<path id="XMLID_120_" class="st5" d="M79.3,133.7c0.8,0.4,1.6,0.7,2.5,1.1C81,134.4,80.2,134.1,79.3,133.7z"/>
	<path id="XMLID_119_" class="st5" d="M26.8,106.7c0.6,0.4,1.3,0.9,1.9,1.3C28,107.6,27.4,107.1,26.8,106.7z"/>
	<path id="XMLID_118_" class="st4" d="M23.8,97.7c0.8,0.6,0.6,1.3,0.2,2C24,99.1,23.9,98.4,23.8,97.7z"/>
	<path id="XMLID_117_" class="st5" d="M68.1,128c0.6,0.3,1.3,0.7,1.9,1C69.4,128.7,68.7,128.3,68.1,128z"/>
	<path id="XMLID_116_" class="st5" d="M32.5,109.9c0.6,0.3,1.3,0.7,1.9,1C33.8,110.6,33.1,110.2,32.5,109.9z"/>
	<path id="XMLID_115_" class="st2" d="M139.2,40.5c-0.6-0.4-1.2-0.7-1.9-1.1C138,39.8,138.6,40.2,139.2,40.5z"/>
	<path id="XMLID_114_" class="st5" d="M58.9,123.4c0.6,0.3,1.3,0.7,1.9,1C60.2,124.1,59.6,123.7,58.9,123.4z"/>
	<path id="XMLID_113_" class="st5" d="M55.5,121.6c0.6,0.3,1.2,0.7,1.9,1C56.8,122.3,56.1,122,55.5,121.6z"/>
	<path id="XMLID_112_" class="st5" d="M50,118.8c0.6,0.3,1.3,0.7,1.9,1C51.3,119.5,50.6,119.1,50,118.8z"/>
	<path id="XMLID_111_" class="st5" d="M47.1,117.4c0.6,0.3,1.3,0.7,1.9,1C48.4,118,47.8,117.7,47.1,117.4z"/>
	<path id="XMLID_110_" class="st5" d="M43.7,115.7c0.6,0.3,1.3,0.7,1.9,1C45,116.3,44.3,116,43.7,115.7z"/>
	<path id="XMLID_109_" class="st2" d="M141.8,42.3c-0.5-0.4-1-0.7-1.5-1.1C140.8,41.6,141.3,42,141.8,42.3z"/>
	<path id="XMLID_108_" class="st5" d="M38.8,113.1c0.5,0.2,0.9,0.5,1.4,0.7C39.7,113.6,39.2,113.3,38.8,113.1z"/>
	<path id="XMLID_107_" class="st4" d="M24.9,100.9c0,0.3,0,0.6,0,0.9c-0.2,0-0.4,0.1-0.5,0.1c-0.1,0-0.2-0.1-0.3-0.1
		c0-0.3,0.1-0.6,0.1-0.9C24.4,100.9,24.6,100.9,24.9,100.9z"/>
	<path id="XMLID_106_" class="st5" d="M35.9,111.6c0.5,0.2,0.9,0.5,1.4,0.7C36.8,112.1,36.4,111.9,35.9,111.6z"/>
	<path id="XMLID_105_" class="st2" d="M143.5,43.8c-0.3-0.3-0.6-0.6-1-0.8C142.9,43.2,143.2,43.5,143.5,43.8z"/>
	<path id="XMLID_104_" class="st5" d="M24.9,104.7c0.3,0,0.6,0,0.9,0c-0.1,0.2-0.2,0.4-0.3,0.6C25.2,105,25.1,104.8,24.9,104.7z"/>
	<path id="XMLID_103_" class="st1" d="M24.3,101.9c0.2,0,0.4-0.1,0.5-0.1c0,0.4,0,0.8,0,1.1c-0.1,0-0.2,0-0.3,0l-0.1,0l-0.1,0
		c0-0.2-0.1-0.4-0.1-0.6C24.2,102.2,24.3,102,24.3,101.9z"/>
	<path id="XMLID_102_" class="st2" d="M24.3,101.9c0,0.2-0.1,0.3-0.1,0.5c0-0.2-0.1-0.4-0.1-0.6C24.2,101.8,24.3,101.8,24.3,101.9z"
		/>
	<path id="XMLID_101_" class="st4" d="M20,65c0,0.3,0.1,0.6,0.1,0.9C20,65.6,20,65.3,20,65z"/>
	<path id="XMLID_100_" class="st6" d="M146.2,70.5c-0.2,0-0.4,0-0.6,0c0-0.2,0-0.4,0-0.6c0.2,0,0.4,0,0.6,0c0.1,0,0.2,0,0.3,0
		C146.3,70.1,146.3,70.3,146.2,70.5z"/>
	<path id="XMLID_99_" class="st4" d="M20.1,54.7c0,0.2,0,0.4-0.1,0.6C20,55.1,20,54.9,20.1,54.7z"/>
	<path id="XMLID_98_" class="st6" d="M146.6,72.8c0-0.2-0.1-0.4-0.1-0.6c0,0,0.1,0,0.1,0l0.1,0C146.7,72.4,146.6,72.6,146.6,72.8z"
		/>
	<path id="XMLID_97_" class="st2" d="M146.7,72.2l-0.1,0c0,0-0.1,0-0.1,0c0-0.2,0-0.4,0.1-0.6C146.6,71.8,146.6,72,146.7,72.2z"/>
	<path id="XMLID_96_" class="st7" d="M119.5,97.7c-0.2,1.3,0.5,2.5-0.7,3.3c-0.2,0.1-0.2,0.7-0.2,1.1c-0.1,2.2-0.1,4.5-0.1,6.7
		c0,0.5-0.6,1.6,0.8,1.5c-0.1,1,0.1,2.4-0.4,2.8c-1.3,1-3,1.6-4.7,2.4c0.1-1.3-0.5-2.3,0.7-3.4c0.5-0.4,0.1-1.9,0.1-2.9
		c-2.8,0.5-3.2,1-3,4.3c0.3,0.1,0.6,0.1,0.9,0.2c0.1,2.5,0.1,2.5-2,3.5c-1,0.5-2,1-3.2,1.6c0.1-1.3-0.6-2.4,0.6-3.3
		c0.2-0.2,0.1-0.7,0.2-1.1c0-2.2,0.1-4.4,0.1-6.6c0-0.6,0.5-1.5-0.7-1.8c-0.5-0.1-0.1-2.5,0.4-2.8c1.5-0.8,3-1.5,4.7-2.4
		c-0.1,1.3,0.4,2.4-0.8,3.4c-0.5,0.5-0.2,1.9-0.3,2.9c2.6-0.2,4-1.9,3.1-4c-0.3-0.7-0.9-1.2-0.8-2c0.1-0.5,0.4-1.1,0.8-1.3
		C116.4,99.2,117.8,98.5,119.5,97.7z"/>
	<path id="XMLID_95_" class="st2" d="M102.8,107.6c-0.2-2.2,1.6-2.2,2.9-3c0,1.7,0.1,3.3-0.1,4.9c0,0.4-0.7,0.8-1.1,1.1
		c-0.5,0.3-1,0.5-1.3,0.6c-0.6-0.6-1.1-1.3-1.7-1.4c-0.6,0-1.3,0.5-1.7,1c-0.7,0.8-0.3,1.6,0.8,1.6c0.9,0.1,1.8-0.1,2.7,0
		c1.8,0.1,2.6,1,2.6,2.8c0.1,3-2.2,6.4-5.1,7.2c-0.8,0.2-1.7,0-2.7,0c0.1,1.7-1.6,1.8-3,2.5c0-1.8-0.3-3.5,0.1-5
		c0.2-0.8,1.7-1.2,2.6-1.8c0,0.2,0,0.3,0,0.5c0.7,0.3,1.4,0.8,2,0.7c1-0.2,1.8-0.9,1.9-2.3c-1.2,0-2.2,0-3.3,0
		c-2.1,0-2.9-0.8-2.9-2.9c0-3.1,1.4-5.4,4-7C100.8,106.5,101.5,106.6,102.8,107.6z"/>
	<path id="XMLID_94_" class="st2" d="M68.4,82.6c0.9-0.5,1.8-1.1,2.8-1.7c-1.7-0.6-1-1.9-1.1-3.2c1.8,1,3.5,1.7,4.9,2.7
		c0.5,0.3,0.4,1.5,0.4,1.9c-1.3,0.6-2.4,1.1-3.4,1.6c0.9,2.6,1.7,5.1,2.8,7.5c0.5,1,1.5,1.8,1.1,3.1c0,0.1-0.1,0.2-0.2,0.5
		c-1.9-1-3.8-1.8-5.5-2.9c-0.4-0.2-0.4-1.3-0.4-1.9c0-0.3,0.5-0.6,0.8-1c-0.4-1.1-0.8-2.3-1.3-3.5c-1.2,0.3-1.7,1.7-1.3,2.7
		c0.4,0.9,0.6,1.8,0.9,2.7c-0.1,0.1-0.3,0.1-0.4,0.2c-1.4-0.7-2.9-1.4-4.3-2.2c-0.8-0.4-0.8-2.1,0-2.7c0.2-0.2,0.5-0.6,0.5-0.9
		c0.1-2.4,0.2-4.8,0.3-7.2c0-0.3,0-0.6-0.2-0.8c-0.8-1.2-0.8-1.2-0.4-2.9c1.5,0.8,3.1,1.3,4.4,2.3c0.4,0.3,0.5,2.1,0.3,2.3
		c-1.6,0.8-0.3,2.1-1,3C68.2,82.4,68.3,82.5,68.4,82.6z"/>
	<path id="XMLID_91_" class="st8" d="M121,104.8c0.2-4.3,1.4-8.1,5.1-10.7c0.5-0.4,1.2-0.7,1.8-0.9c2.3-0.7,3.8-0.1,4.3,2.3
		c1.1,5,0.3,9.6-3.7,13.1c-0.9,0.8-2.1,1.3-3.3,1.7c-1.9,0.6-3.5-0.6-3.9-2.9C121.1,106.5,121.1,105.7,121,104.8z M128.9,101
		c-0.1,0-0.1-0.1-0.2-0.1c-0.1-0.9-0.1-1.8-0.4-2.7c-0.2-0.5-0.7-0.9-1.1-1.3c-0.5,0.4-1.1,0.7-1.3,1.2c-0.9,2.4-1.2,4.8-0.4,7.3
		c0.1,0.4,0.6,1,0.8,1c0.4,0,1.1-0.4,1.2-0.7C128,104.1,128.4,102.5,128.9,101z"/>
	<path id="XMLID_88_" class="st9" d="M49.8,74c-0.1,0.7-0.1,1.5-0.2,2.3c-0.5,3.2-2.8,4.4-5.7,2.9c-5.4-2.9-6.2-9.5-4.8-13.4
		c0.8-2.2,2.7-2.9,4.9-1.9C47.7,65.6,49.8,69.2,49.8,74z M46,71.8c-0.3-1.2-0.5-2.5-0.9-3.8c-0.4-1.1-1.5-1.2-2.1-0.4
		c-1.1,1.7-0.8,6.3,0.5,7.8c0.7,0.8,1.4,0.8,1.7-0.2C45.6,74.3,45.7,73.1,46,71.8z"/>
	<path id="XMLID_84_" class="st2" d="M27.4,55.6c2.5,1.5,5.2,2.8,7.5,4.5c1,0.7,1.5,2.2,1.8,3.4c0.3,1.2,0.1,2.5-1.4,3.1
		c1.3,1.7,2.1,3.3,1.7,5.4c-0.3,1.5-0.9,2-2.4,1.7c-0.7-0.1-1.5-0.4-2.1-0.8c-1.5-0.8-3-1.7-4.6-2.3c-1.3-0.5-1.5-1.3-1.3-2.5
		c0-0.1,0-0.2,0-0.3c2.1-1.5,0.7-3.7,1.1-5.6c0.2-0.7,0.2-1.5,0.1-2.3c-0.1-0.5-0.4-1-0.5-1.6c-0.2-0.8-0.3-1.6-0.4-2.4
		C27.1,55.8,27.3,55.7,27.4,55.6z M30.9,66c0,1-0.2,2,0.1,2.8c0.2,0.6,1.1,0.9,1.7,1.4c0.3-0.5,0.8-0.9,0.9-1.4
		C33.6,67.3,32.7,66.4,30.9,66z M31.2,60.5c-0.1,0.9-0.3,1.7-0.1,2.4c0.1,0.5,0.8,0.8,1.3,1.2c0.3-0.4,0.8-0.8,0.8-1.2
		C33.3,61.7,32.6,60.9,31.2,60.5z"/>
	<path id="XMLID_81_" class="st10" d="M62.5,80.9c-0.2,0.9-0.2,1.9-0.5,2.8c-0.7,2.4-2.4,3.2-4.7,2.3c-4.3-1.7-6.8-6.4-6.2-11.5
		c0.1-1,0.4-2,0.9-2.8c0.9-1.6,2.3-2.1,4-1.4c3.6,1.4,5.5,4.1,6.2,7.8C62.4,79,62.4,79.9,62.5,80.9z M58.7,78.1
		c-0.4-1.2-0.6-2.6-1.2-3.8c-0.5-1-1.5-1-1.9,0c-1,2.6-1,5.1,0.4,7.6c0.5,1,1.5,0.9,1.9-0.2C58.3,80.7,58.4,79.5,58.7,78.1z"/>
	<path id="XMLID_78_" class="st11" d="M138.4,100.4c0.2,0,0.5,0,0.8,0c0.3,2.4,0.3,2.5-1.9,3.6c-1,0.5-2,1-3,1.4
		c-0.1,0-0.2,0-0.4-0.1c0.1-1.1-0.5-2.3,0.8-3.1c0.1-0.1,0.1-0.4,0.1-0.7c0-2.6,0.1-5.2,0.1-7.7c0-0.5,0.2-1.1-0.7-1
		c0.1-0.9-0.1-2.4,0.3-2.7c2-1.2,4.2-2.2,6.4-3.1c1.7-0.6,2.7,0.1,2.9,1.9c0.3,3-0.8,5.5-3.4,6.9C138.5,97,138.1,98.4,138.4,100.4z
		 M138.4,94.7c1.6-0.4,2.6-1.6,2.4-2.9c-0.1-0.5-0.6-0.9-1-1.3c-0.5,0.4-1.3,0.8-1.4,1.3C138.2,92.7,138.4,93.7,138.4,94.7z"/>
	<path id="XMLID_77_" class="st4" d="M62.3,119.8c-0.5-0.2-0.9-0.5-1.4-0.7C61.3,119.3,61.8,119.6,62.3,119.8z"/>
	<path id="XMLID_76_" class="st12" d="M79.2,123c-0.4-0.2-0.8-0.4-1.1-0.6C78.4,122.6,78.8,122.8,79.2,123z"/>
	<path id="XMLID_75_" class="st5" d="M68.3,125.9c0.5,0.2,0.9,0.5,1.4,0.7C69.2,126.4,68.7,126.2,68.3,125.9z"/>
	<path id="XMLID_74_" class="st4" d="M79.2,125.9c0.5,0.2,0.9,0.5,1.4,0.7C80.1,126.4,79.7,126.2,79.2,125.9z"/>
	<path id="XMLID_73_" class="st12" d="M43.9,90.1c0.4,0.2,0.9,0.5,1.3,0.7C44.8,90.5,44.3,90.3,43.9,90.1z"/>
	<path id="XMLID_72_" class="st12" d="M29.5,91.4c-0.5-0.2-0.9-0.5-1.4-0.7C28.6,90.9,29,91.2,29.5,91.4z"/>
	<path id="XMLID_71_" class="st4" d="M35.8,103.5c0.5,0.2,0.9,0.5,1.4,0.7C36.7,104,36.3,103.8,35.8,103.5z"/>
	<path id="XMLID_70_" class="st12" d="M70,103.5c0.5,0.2,0.9,0.5,1.4,0.7C70.9,104,70.5,103.8,70,103.5z"/>
	<path id="XMLID_69_" class="st5" d="M26.6,105c0.5,0.2,0.9,0.5,1.4,0.7C27.5,105.4,27.1,105.2,26.6,105z"/>
	<path id="XMLID_68_" class="st5" d="M32.9,108.1c0.4,0.2,0.9,0.5,1.3,0.7C33.8,108.6,33.4,108.4,32.9,108.1z"/>
	<path id="XMLID_67_" class="st12" d="M55.4,102.1c0.3,0.2,0.6,0.3,1,0.5C56,102.4,55.7,102.3,55.4,102.1z"/>
	<path id="XMLID_66_" class="st12" d="M41.3,103.5c-0.3-0.2-0.6-0.4-0.9-0.5C40.7,103.1,41,103.3,41.3,103.5z"/>
	<path id="XMLID_65_" class="st12" d="M69.1,109.3c0.3,0.2,0.7,0.3,1,0.5C69.8,109.6,69.5,109.4,69.1,109.3z"/>
	<path id="XMLID_64_" class="st12" d="M75.5,118.5c0.3,0.2,0.6,0.3,1,0.5C76.1,118.8,75.8,118.6,75.5,118.5z"/>
	<path id="XMLID_63_" class="st12" d="M47.3,100.6c-0.3-0.2-0.6-0.3-1-0.5C46.7,100.3,47,100.4,47.3,100.6z"/>
	<path id="XMLID_62_" class="st12" d="M41.3,91.4c-0.3-0.2-0.6-0.3-0.9-0.5C40.7,91,41,91.2,41.3,91.4z"/>
	<path id="XMLID_61_" class="st12" d="M64.3,106.7c0.3,0.1,0.5,0.3,0.8,0.4C64.8,107,64.5,106.8,64.3,106.7z"/>
	<path id="XMLID_60_" class="st12" d="M49,107.4c-0.3-0.1-0.5-0.3-0.8-0.4C48.5,107.2,48.8,107.3,49,107.4z"/>
	<path id="XMLID_59_" class="st4" d="M39.6,108.1c-0.2-0.1-0.4-0.2-0.6-0.3C39.2,107.9,39.4,108,39.6,108.1z"/>
	<path id="XMLID_58_" class="st12" d="M58.2,109.6c0.2,0.1,0.4,0.2,0.6,0.3C58.6,109.8,58.4,109.7,58.2,109.6z"/>
	<path id="XMLID_57_" class="st12" d="M44.4,102.4c0.3,0.1,0.5,0.3,0.8,0.4C44.9,102.7,44.7,102.6,44.4,102.4z"/>
	<path id="XMLID_56_" class="st5" d="M36.4,109.9c0.3,0.1,0.5,0.3,0.8,0.4C36.9,110.1,36.7,110,36.4,109.9z"/>
	<path id="XMLID_55_" class="st4" d="M44.4,110.6c-0.3-0.1-0.5-0.3-0.8-0.4C43.9,110.3,44.2,110.5,44.4,110.6z"/>
	<path id="XMLID_54_" class="st12" d="M78.6,110.6c-0.3-0.1-0.5-0.3-0.8-0.4C78.1,110.3,78.4,110.5,78.6,110.6z"/>
	<path id="XMLID_53_" class="st5" d="M39.3,111.3c0.3,0.1,0.5,0.3,0.8,0.4C39.8,111.6,39.5,111.5,39.3,111.3z"/>
	<path id="XMLID_52_" class="st12" d="M73.2,111.3c0.3,0.1,0.5,0.3,0.8,0.4C73.7,111.6,73.4,111.5,73.2,111.3z"/>
	<path id="XMLID_51_" class="st12" d="M58.5,112.4c-0.2-0.1-0.4-0.2-0.6-0.3C58.1,112.2,58.3,112.3,58.5,112.4z"/>
	<path id="XMLID_50_" class="st4" d="M53.6,112.8c0.3,0.1,0.5,0.3,0.8,0.4C54.2,113,53.9,112.9,53.6,112.8z"/>
	<path id="XMLID_49_" class="st12" d="M41,100.7c0.3,0.1,0.5,0.3,0.8,0.4C41.5,100.9,41.3,100.8,41,100.7z"/>
	<path id="XMLID_48_" class="st4" d="M56.5,114.2c0.3,0.1,0.5,0.3,0.8,0.4C57,114.5,56.8,114.3,56.5,114.2z"/>
	<path id="XMLID_47_" class="st12" d="M67.1,114.2c0.2,0.1,0.4,0.2,0.6,0.3C67.5,114.4,67.3,114.3,67.1,114.2z"/>
	<path id="XMLID_46_" class="st12" d="M61.4,101.8c-0.3-0.1-0.5-0.3-0.8-0.4C60.9,101.5,61.1,101.6,61.4,101.8z"/>
	<path id="XMLID_45_" class="st12" d="M81.5,115.6c0.3,0.1,0.5,0.3,0.8,0.4C82,115.9,81.8,115.7,81.5,115.6z"/>
	<path id="XMLID_44_" class="st4" d="M27.2,101.7c-0.3-0.1-0.5-0.3-0.8-0.4C26.7,101.5,26.9,101.6,27.2,101.7z"/>
	<path id="XMLID_43_" class="st12" d="M32.4,98.8c-0.2-0.1-0.4-0.2-0.6-0.3C32,98.7,32.2,98.8,32.4,98.8z"/>
	<path id="XMLID_42_" class="st12" d="M70.3,118.4c-0.2-0.1-0.4-0.2-0.6-0.3C69.9,118.2,70.1,118.3,70.3,118.4z"/>
	<path id="XMLID_41_" class="st12" d="M81.8,118.4c-0.2-0.1-0.4-0.2-0.6-0.3C81.4,118.2,81.6,118.3,81.8,118.4z"/>
	<path id="XMLID_40_" class="st12" d="M55.1,104.6c-0.3-0.2-0.5-0.3-0.8-0.5C54.6,104.3,54.8,104.5,55.1,104.6z"/>
	<path id="XMLID_39_" class="st5" d="M56.2,119.9c0.2,0.1,0.4,0.2,0.6,0.3C56.6,120.1,56.4,120,56.2,119.9z"/>
	<path id="XMLID_38_" class="st12" d="M75.8,121.2c-0.3-0.1-0.5-0.3-0.8-0.4C75.2,121,75.5,121.1,75.8,121.2z"/>
	<path id="XMLID_37_" class="st12" d="M32.1,96.1c0.2,0.1,0.4,0.2,0.6,0.3C32.5,96.3,32.3,96.2,32.1,96.1z"/>
	<path id="XMLID_36_" class="st12" d="M49.3,105c0.2,0.1,0.4,0.2,0.6,0.3C49.7,105.2,49.5,105.1,49.3,105z"/>
	<path id="XMLID_35_" class="st5" d="M62.5,123.1c0.2,0.1,0.4,0.2,0.6,0.3C62.9,123.3,62.7,123.2,62.5,123.1z"/>
	<path id="XMLID_34_" class="st12" d="M38.4,96c-0.2-0.1-0.4-0.2-0.6-0.3C38,95.8,38.2,95.9,38.4,96z"/>
	<path id="XMLID_33_" class="st4" d="M70.6,124.1c-0.3-0.1-0.5-0.3-0.8-0.4C70,123.9,70.3,124,70.6,124.1z"/>
	<path id="XMLID_32_" class="st5" d="M66,124.8c0.3,0.1,0.5,0.3,0.8,0.4C66.5,125.1,66.2,124.9,66,124.8z"/>
	<path id="XMLID_31_" class="st12" d="M35,94.3c-0.3-0.1-0.5-0.3-0.8-0.4C34.4,94,34.7,94.1,35,94.3z"/>
	<path id="XMLID_30_" class="st12" d="M61.4,105.3c0.3,0.1,0.5,0.3,0.8,0.4C61.9,105.5,61.7,105.4,61.4,105.3z"/>
	<path id="XMLID_29_" class="st12" d="M70.3,106.3c-0.2-0.1-0.4-0.2-0.6-0.3C69.9,106.1,70.1,106.2,70.3,106.3z"/>
	<path id="XMLID_28_" class="st5" d="M71.7,127.7c0.2,0.1,0.4,0.2,0.6,0.3C72.1,127.9,71.9,127.8,71.7,127.7z"/>
	<path id="XMLID_27_" class="st12" d="M38.1,93.2c0.3,0.1,0.5,0.3,0.8,0.4C38.6,93.5,38.4,93.3,38.1,93.2z"/>
	<path id="XMLID_26_" class="st12" d="M78.3,116.7c-0.3-0.1-0.5-0.3-0.8-0.4C77.8,116.4,78.1,116.5,78.3,116.7z"/>
	<path id="XMLID_25_" class="st12" d="M35.3,88.2c-0.3-0.1-0.5-0.3-0.8-0.4C34.7,87.9,35,88.1,35.3,88.2z"/>
	<path id="XMLID_24_" class="st12" d="M32.4,86.8c-0.3-0.1-0.5-0.3-0.8-0.4C31.9,86.5,32.1,86.6,32.4,86.8z"/>
	<path id="XMLID_23_" class="st12" d="M27.2,81.4c0.3,0.1,0.5,0.3,0.8,0.4C27.7,81.7,27.5,81.6,27.2,81.4z"/>
	<path id="XMLID_22_" class="st4" d="M30.7,103.5c-0.2-0.1-0.4-0.2-0.6-0.3C30.3,103.3,30.5,103.4,30.7,103.5z"/>
	<path id="XMLID_21_" class="st5" d="M30.1,106.7c0.2,0.1,0.4,0.2,0.6,0.3C30.5,106.9,30.3,106.8,30.1,106.7z"/>
	<path id="XMLID_20_" class="st5" d="M85.8,134.2c0.2-0.3,0.3-0.5,0.5-0.8C86.1,133.7,86,134,85.8,134.2z"/>
	<path id="XMLID_19_" class="st12" d="M83.8,119c0,0.2-0.1,0.3-0.1,0.5c-0.1-0.1-0.3-0.2-0.4-0.3C83.4,119.1,83.6,119.1,83.8,119z"
		/>
	<path id="XMLID_18_" class="st12" d="M83.8,125c-0.1,0-0.3,0.1-0.4,0.1C83.5,125.1,83.6,125.1,83.8,125z"/>
	<path id="XMLID_17_" class="st12" d="M83.8,113c-0.1,0-0.3,0-0.4,0.1C83.5,113,83.6,113,83.8,113z"/>
	<path id="XMLID_16_" class="st13" d="M145.3,61.9c0.4,2.2-1,3.1-2.7,3.9c-6.8,3.4-13.6,6.9-20.5,10.3c-8.4,4.2-16.8,8.4-25.2,12.6
		c-3.4,1.7-6.8,3.5-10.2,5.2c-0.4,0.2-0.8,0.3-1.2,0.5c-0.5-2.3-0.5-2.4,1.4-3.4c8.5-4.3,17-8.6,25.5-12.9
		c7.6-3.8,15.1-7.7,22.7-11.5c3-1.5,6-3,9-4.5C144.5,62,144.9,62,145.3,61.9C145.3,62,145.3,61.9,145.3,61.9z"/>
	<path id="XMLID_15_" class="st12" d="M145.6,49.7c-0.1,0.9-0.3,1.8-0.4,2.7c-1.3,0.6-2.7,1.1-4,1.7c-7.4,3.7-14.8,7.5-22.2,11.2
		C108.5,70.7,98,76,87.5,81.2c-0.7,0.3-1.3,0.7-2,1.1c-0.4-2.6-0.4-2.6,1.8-3.7c6.2-3.2,12.4-6.3,18.7-9.4c6.3-3.2,12.7-6.4,19-9.6
		c6.4-3.2,12.8-6.5,19.2-9.7c0.3-0.2,0.6-0.4,0.9-0.7c0.2,0,0.3,0,0.5,0C145.6,49.4,145.6,49.6,145.6,49.7z"/>
	<path id="XMLID_14_" class="st13" d="M145.2,55.4c0,1.1,0,2.2,0,3.3c-0.4,0-0.8-0.1-1.1,0.1c-11.3,5.7-22.6,11.4-34,17.2
		c-8.1,4.1-16.2,8.1-24.3,12.2c-0.1,0-0.2,0-0.3,0c-0.6-1.9-0.5-2.4,1.2-3.2c6.5-3.3,12.9-6.6,19.4-9.8c8.5-4.3,17-8.5,25.4-12.8
		C136.1,60.1,140.7,57.7,145.2,55.4z"/>
	<path id="XMLID_13_" class="st12" d="M145.6,68.5c0,0.2,0,0.4,0,0.6c-0.6,2.7-3.2,2.9-5,3.9c-10.1,5.2-20.3,10.2-30.4,15.4
		c-7.9,4-15.7,8-23.6,11.9c-0.3,0.2-0.7,0.3-1.1,0.4c-0.2-2.5-0.3-2.5,1.8-3.6c6.7-3.4,13.4-6.8,20.2-10.2
		c6.3-3.2,12.5-6.3,18.8-9.5c6.3-3.1,12.5-6.3,18.8-9.4C145.1,68.1,145.3,68.3,145.6,68.5z"/>
	<path id="XMLID_12_" class="st14" d="M145.6,68.5c-0.2-0.2-0.4-0.3-0.6-0.5c0.2-0.1,0.4-0.3,0.6-0.4
		C145.5,67.8,145.5,68.2,145.6,68.5z"/>
	<path id="XMLID_11_" class="st3" d="M145.5,49.2c-0.2,0-0.3,0-0.5,0c0.1-0.2,0.1-0.4,0.2-0.6C145.3,48.8,145.4,49,145.5,49.2z"/>
	<path id="XMLID_10_" class="st3" d="M146.2,69.9c-0.2,0-0.4,0-0.6,0c0.1-0.3,0.2-0.5,0.3-0.8C145.9,69.4,146,69.6,146.2,69.9z"/>
	<path id="XMLID_9_" class="st4" d="M24.6,102.9c0.1,0,0.2,0,0.3,0c0,0.3,0,0.6,0,0.8c-0.1,0-0.1,0-0.2,0
		C24.7,103.5,24.6,103.2,24.6,102.9z"/>
	<path id="XMLID_8_" class="st15" d="M128.9,101c-0.4,1.5-0.8,3.1-1.4,4.6c-0.1,0.4-0.8,0.7-1.2,0.7c-0.3,0-0.7-0.6-0.8-1
		c-0.7-2.5-0.5-4.9,0.4-7.3c0.2-0.5,0.9-0.8,1.3-1.2c0.4,0.4,0.9,0.8,1.1,1.3c0.3,0.9,0.3,1.8,0.4,2.7
		C128.7,100.9,128.8,101,128.9,101z"/>
	<path id="XMLID_7_" class="st4" d="M46,71.8c-0.3,1.3-0.4,2.4-0.8,3.5c-0.3,1-1.1,1-1.7,0.2c-1.3-1.6-1.6-6.2-0.5-7.8
		c0.6-0.9,1.6-0.8,2.1,0.4C45.5,69.3,45.7,70.6,46,71.8z"/>
	<path id="XMLID_6_" class="st16" d="M30.9,66c1.8,0.5,2.7,1.4,2.6,2.8c0,0.5-0.6,0.9-0.9,1.4c-0.6-0.4-1.5-0.8-1.7-1.4
		C30.7,68,30.9,66.9,30.9,66z"/>
	<path id="XMLID_5_" class="st17" d="M31.2,60.5c1.4,0.4,2.1,1.2,2,2.4c0,0.4-0.5,0.8-0.8,1.2c-0.4-0.4-1.1-0.7-1.3-1.2
		C31,62.2,31.2,61.4,31.2,60.5z"/>
	<path id="XMLID_4_" class="st13" d="M58.7,78.1c-0.3,1.4-0.4,2.5-0.8,3.6c-0.4,1-1.4,1.1-1.9,0.2c-1.4-2.4-1.4-5-0.4-7.6
		c0.4-1,1.4-1.1,1.9,0C58.1,75.6,58.4,77,58.7,78.1z"/>
	<path id="XMLID_3_" class="st18" d="M138.4,94.7c0-1-0.2-2,0.1-3c0.1-0.5,0.9-0.9,1.4-1.3c0.3,0.4,0.9,0.9,1,1.3
		C141,93.1,139.9,94.3,138.4,94.7z"/>
</g>
</svg>
