<?xml version="1.0" encoding="utf-8"?>
<!-- Generator: Adobe Illustrator 19.0.0, SVG Export Plug-In . SVG Version: 6.00 Build 0)  -->
<svg version="1.1" id="Layer_1" xmlns="http://www.w3.org/2000/svg" xmlns:xlink="http://www.w3.org/1999/xlink" x="0px" y="0px"
	 viewBox="0 0 178 178" style="enable-background:new 0 0 178 178;" xml:space="preserve">
<style type="text/css">
	.st0{display:none;fill:#FEFEFE;}
	.st1{fill:#939393;}
	.st2{fill:#A5A5A5;}
	.st3{fill:#A9A9A9;}
	.st4{fill:#A0A0A0;}
	.st5{fill:#999999;}
	.st6{fill:#9F9F9F;}
	.st7{fill:#9A9A9A;}
	.st8{fill:#FDFDFD;}
	.st9{fill:#C4C4C4;}
	.st10{fill:#C6C6C6;}
	.st11{fill:#8E8E8E;}
	.st12{fill:#8C8C8C;}
	.st13{fill:#959595;}
	.st14{fill:#949494;}
</style>
<g id="XMLID_2_">
	<path id="XMLID_44_" class="st0" d="M217.4,213.6c-85.6,0-171.2,0-256.7,0c0-83.1,0-166.1,0-249.2c85.6,0,171.2,0,256.7,0
		C217.4,47.4,217.4,130.5,217.4,213.6z M191.5,105.4c0-1.1,0-2.2,0-3.4c0-0.4,0-0.8,0-1.1c0-0.5,0-0.9,0-1.4c0-0.7,0-1.4,0-2.2
		c0-0.3,0-0.5,0-0.8c0-4.2,0.1-8.5,0.1-12.7c0-14.2-0.1-28.3-0.2-42.5c0-0.5,0-1,0-1.5c0.1-3.2,0.2-6.3,0.2-9.5
		c0-0.7-0.5-1.4-0.8-2.1c-0.6-4.2-1.1-8.5-1.8-12.7c-0.3-1.5-1.2-2.9-1.8-4.3c-0.1-0.2-0.3-0.4-0.4-0.6c-0.2-0.5-0.4-0.9-0.5-1.4
		c-0.5-1-1-2.1-1.5-3.1c-5.5-9.8-13.7-16.5-24.3-19.7c-6.4-1.9-13.4-2.6-20.1-2.7c-32.4-0.3-64.7-0.2-97.1-0.1
		c-4.8,0-9.7,0.2-14.5,0.5c-12.7,1-23.6,5.9-31.6,16c-2.7,3.4-4.4,7.6-6.6,11.5c-1.1,3.7-3,7.4-3.3,11.2c-0.8,9.1-1,18.2-1.1,27.4
		c-0.1,8.5,0,17,0.1,25.5c0,6.2,0,12.4,0,18.5c0,1.3,0,2.6,0,4c0,0.3,0,0.7,0,1c0,13,0,26,0,39c0,2.9-0.1,5.7,0,8.6
		c0,0.5,0.5,1.1,0.8,1.6c0.3,3.2,0.6,6.4,1.1,9.6c0.9,6.2,3.6,11.7,7.1,16.7c9,12.7,21.8,18.8,36.9,18.9c37.9,0.4,75.7,0.3,113.6,0
		c8.9-0.1,17.5-2.2,25.1-7.4c12.7-8.6,19.4-20.6,20.1-36c0.2-2,0.4-4.1,0.5-6.1c0-1,0.1-2,0.1-2.9c0-3.4,0.1-6.7,0.1-10.1
		c0-1.5,0.1-3,0.1-4.5C191.6,119.8,191.6,112.6,191.5,105.4z"/>
	<path id="XMLID_43_" class="st1" d="M175.3,133.3c0,0.8,0,1.6-0.1,2.5c-0.1,1.7-0.3,3.4-0.4,5.1c-0.6,12.9-6.2,23-16.9,30.3
		c-6.4,4.3-13.6,6.2-21.2,6.2c-31.9,0.2-63.8,0.3-95.7,0c-12.8-0.1-23.6-5.2-31.1-15.9c-3-4.2-5.2-8.9-6-14.1
		c-0.4-2.7-0.6-5.4-0.9-8.1c-0.1-2.9-0.2-5.7-0.3-8.6c1.1-0.1,2.2-0.4,3.3-0.4c5.5,0.1,11.1,0.4,16.6,0.3c2.1,0,4.7,0.1,5.9-2.6
		c0.1-0.2,0.5-0.2,0.8-0.3c0.2,0.1,0.3,0.3,0.5,0.4c0.2,0,0.5,0,0.7,0.1c0.6,1.4,1.6,1.5,2.7,0.9c0.8-0.4,1.6-0.9,2.3-1.4
		c9.5-6.6,19.9-9.3,31.3-6.4c9.3,2.4,15.8,8.1,19.3,17.1c0.2,0.5,0.5,1,0.8,1.4c0.4-0.9,0.4-1.6,0.4-2.2c0-23.7,0-47.3,0.1-71
		c0.3,0.6,0.8,1.2,0.9,1.8c0.1,4.1,0,8.1,0,12.2c0,11.4,0,22.7,0,34.1c0,0.9-0.4,2.1,1.2,2.1c0,7.1,0,14.1,0,21.2
		c0,0.7,0.6,1.3,0.9,2c0.4-0.5,0.9-0.9,1.2-1.4c0.5-1,0.8-2.1,1.3-3.1c4-7.4,10.1-12.2,18.3-14.3c7.7-1.9,15.1-1.3,22.3,1.8
		c3.6,1.5,6.9,3.8,10.3,5.7c1.3,0.7,2.5,1.4,3.5-0.5c0.2,0,0.5,0,0.7-0.1c0.2-1.5,0.3-3.1,0.5-4.6c5.8,1.6,11.6,0.7,17.5,0.6
		c2.9,0,5.8,0.4,8.6,0.7c0,1.7-0.1,3.4,0,5.2C174.9,131.1,175.2,132.2,175.3,133.3z"/>
	<path id="XMLID_42_" class="st2" d="M171.8,23.6c0.5,1.2,1.3,2.4,1.5,3.6c0.6,3.5,1,7.1,1.5,10.7c0,1.8,0,3.6,0,5.5
		c-2.4-0.2-4.4-0.4-6.4-0.4c-3.1-0.1-6.3,0-9.4,0c-4.4,0.1-8.8,0.2-13.2,0.3c-2.2,0.1-4.6,0.7-6.6,0.1c-3.5-1-6.9-2.7-10.3-4
		c-1.2-0.5-2.5-0.8-3.8-0.9c-3.1-0.1-6.2,0.4-9.2,0.1c-3-0.3-5.5,0.9-8.1,1.8c-2.3,0.8-4.4,2-6.7,2.6c-1.5,0.4-3.3-0.1-4.9-0.1
		c-4.8,0-9.7,0-14.5,0c-1.7,0-3.4-0.3-5-0.2c-0.4,0-0.8,0.7-1.3,1.1c-0.4-0.1-0.8-0.1-1.2-0.3c-8.2-4.4-17-4.7-25.6-2.4
		c-6.8,1.8-13.4,4.7-17.7,10.9c-1.5-1.2-1.2,0.8-1.9,1.1c-1.2,0.5-0.8,1.4,0.5,1.6c0,0.8,0,1.7,0,2.5c-1.9,0.1-3.9,0.4-5.8,0.4
		c-5.3,0.1-10.5,0-15.8,0c-3.2,0-4.5,1.3-4.5,4.6c0,4.6,0,9.1,0,13.7c0,0.7-0.4,1.3-0.7,2c0-7.2-0.2-14.3-0.1-21.5
		c0.1-7.7,0.3-15.4,0.9-23.1c0.3-3.2,1.8-6.3,2.8-9.5c2.1-1.5,4.5-1.3,6.8-1.3c48.9,0,97.7,0,146.6,0c3.8,0,7.6-0.5,11.5-0.8
		c0.1,0.4,0.3,0.8,0.4,1.2C171.6,23.3,171.7,23.5,171.8,23.6z"/>
	<path id="XMLID_41_" class="st3" d="M171,21.9c-3.8,0.3-7.6,0.8-11.5,0.8c-48.9,0.1-97.7,0-146.6,0c-2.4,0-4.8-0.2-6.8,1.3
		c1.8-3.2,3.3-6.8,5.6-9.6c6.8-8.5,16-12.6,26.7-13.5c4-0.3,8.1-0.5,12.2-0.5c27.3,0,54.5-0.1,81.8,0.1c5.7,0,11.6,0.6,17,2.3
		c8.9,2.7,15.9,8.3,20.5,16.6C170.2,20.2,170.6,21.1,171,21.9z"/>
	<path id="XMLID_38_" class="st4" d="M75.3,43.9c0.4-0.4,0.8-1.1,1.3-1.1c1.7,0,3.4,0.2,5,0.2c4.8,0,9.7,0,14.5,0
		c1.7,0,3.4,0.5,4.9,0.1c2.3-0.6,4.4-1.8,6.7-2.6c2.6-0.9,5.1-2.1,8.1-1.8c3.1,0.3,6.2-0.2,9.2-0.1c1.3,0,2.6,0.4,3.8,0.9
		c3.5,1.3,6.8,3,10.3,4c2,0.6,4.4-0.1,6.6-0.1c4.4-0.1,8.8-0.2,13.2-0.3c3.1,0,6.3-0.1,9.4,0c2,0,4,0.3,6.4,0.4c0-2,0-3.8,0-5.5
		c0.2,0.6,0.7,1.2,0.7,1.8c0,2.7-0.1,5.3-0.2,8c-0.3,0.2-0.6,0.4-0.9,0.6c0.3,0.2,0.6,0.4,0.9,0.6c0,11.9,0.1,23.9,0.1,35.8
		c0,3.6,0,7.1-0.1,10.7c-0.3-0.8-0.6-1.6-1.2-3c-8.3,0-16.9,0-25.5-0.1c0-5.5,0-11,0-16.4c0-0.7,0-1.4,0-2.1
		c8.6,0.2,17.3,0.5,26.1,0.7c0-1.5,0.2-2.8-0.1-4.1c-0.2-0.8-1.2-1.9-1.9-2c-4-0.3-8.1-0.4-12.1-0.5c-4-0.1-8-0.3-12-0.4
		c-0.1-1.8-0.3-3.6-0.4-5.5c0-0.4,0-0.9,0-1.3c0-2.1,0-4.2,0-6.3c-0.3-0.2-0.5-0.3-0.8-0.5c-0.1-0.5-0.2-1-0.4-1.4
		c-1.8-4.1-5.3-6.3-9-8.1c-5.8-2.8-11.9-4.6-18.6-4.6c-6.9,0.1-13.1,1.9-18.9,5.6c-0.9,0.6-1.9,0.9-2.9,1.4
		c-0.1-0.5-0.2-1.1-0.4-1.9c-1.4,1.4-0.9,1.8,0.3,2c-0.3,0.6-0.5,1.4-1,1.9c-4.2,3.9-5.6,8.9-5.5,14.5c0,0.5-0.4,0.9-0.6,1.4
		c-0.1-0.5-0.2-1.1-0.3-1.6c-0.5,0.5-0.6,0.8-0.6,1.2c0,8.7,0,17.4,0,26.1c0,0.7,0.3,1.5,0.4,2.2c0.1,0.9,0.3,1.8,0.4,2.7
		c-0.3,0.7-0.9,1.3-0.9,2c-0.1,6.5,0,13,0,19.5c-1.7,0.1-1.2-1.2-1.2-2.1c0-11.4,0-22.7,0-34.1c0-4.1,0-8.1,0-12.2
		c0-0.6-0.6-1.2-0.9-1.8c-0.2-1.4-0.6-2.9-0.6-4.3c0-5-1.7-9.2-5-12.9c-0.6-0.7-1-1.7-1.5-2.6c0.2-0.2,0.5-0.4,0.7-0.6
		c-0.1-0.1-0.2-0.2-0.3-0.2c-0.1,0.3-0.3,0.5-0.4,0.8C78.6,45.9,76.9,44.9,75.3,43.9z M145.7,45.9c-0.3,0.2-0.6,0.3-0.9,0.5
		c0.4,0.6,0.7,1.1,1.1,1.7c0.3-0.1,0.5-0.3,0.8-0.4C146.3,47.1,146,46.5,145.7,45.9z"/>
	<path id="XMLID_37_" class="st5" d="M29.3,127.8c-0.3,0.1-0.7,0.1-0.8,0.3c-1.1,2.7-3.7,2.6-5.9,2.6c-5.5,0.1-11.1-0.2-16.6-0.3
		c-1.1,0-2.2,0.3-3.3,0.4c-0.1,0-0.2,0-0.3,0c0-11,0-21.9,0-32.9c0.3-0.2,0.6-0.4,0.9-0.5c-0.3-0.1-0.6-0.2-0.9-0.3
		c0-1.1,0-2.2,0-3.3c2.2-0.3,4.4-0.8,6.6-0.8c6.7-0.1,13.5,0,20.2,0C29.3,104.5,29.3,116.1,29.3,127.8z"/>
	<path id="XMLID_36_" class="st6" d="M29.3,92.8c-6.7,0-13.5-0.1-20.2,0c-2.2,0-4.4,0.5-6.6,0.8c0-5.2,0-10.4,0-15.6
		c0.2-0.7,0.6-1.3,0.7-2c0.1-4.6,0-9.1,0-13.7c0-3.3,1.3-4.6,4.5-4.6c5.3,0,10.5,0,15.8,0c1.9,0,3.9-0.3,5.8-0.4
		c0.1,0.6,0.3,1.1,0.4,1.7c0,0.7,0,1.4,0,2.1c-0.3,0.2-0.8,0.6-0.8,0.7c0.1,0.4,0.5,0.6,0.8,1c0,0.4,0,0.8,0,1.3
		c-0.3,0.2-0.5,0.4-0.8,0.5c0.3,0.2,0.5,0.5,0.8,0.7c0,2,0,3.9,0,5.9c0,1.4,0,2.8,0,4.2c0,0.6,0,1.1,0,1.7c0,2.7,0,5.3,0,8
		c0,1.1,0,2.3,0,3.4C29.6,90,29.5,91.4,29.3,92.8z"/>
	<path id="XMLID_35_" class="st7" d="M148.7,92.4c8.6,0,17.2,0,25.5,0.1c0.6,1.4,0.9,2.2,1.2,3c0,0.2,0,0.5,0,0.7c0,0.6,0,1.2,0,1.8
		c0,0.4,0,0.8,0,1.1c0,0.3,0,0.6,0,1c0,0.9,0,1.9,0,2.8c-0.2,0.5-0.6,1-0.6,1.5c0,5.1,0,10.3,0,15.4c0,0.5,0.4,0.9,0.7,1.3
		c0,1.3,0,2.5-0.1,3.8c-0.2,0-0.4,0-0.6,0c-2.9-0.2-5.8-0.7-8.6-0.7c-5.9,0.1-11.7,0.9-17.5-0.6c0-2.3,0-4.6,0-6.9
		c0-1.4-0.3-2.7-0.4-4.1c0-0.6,0-1.1,0-1.7c0.1-0.7,0.4-1.4,0.4-2.2C148.7,103.3,148.7,97.8,148.7,92.4z"/>
	<path id="XMLID_34_" class="st4" d="M175.5,121.1c-0.2-0.4-0.7-0.9-0.7-1.3c0-5.1,0-10.3,0-15.4c0-0.5,0.4-1,0.6-1.5
		C175.4,108.9,175.5,115,175.5,121.1z"/>
	<path id="XMLID_33_" class="st4" d="M174.8,124.8c0.2,0,0.4,0,0.6,0c0,2.8,0,5.7-0.1,8.5c-0.2-1.1-0.5-2.2-0.5-3.3
		C174.7,128.3,174.8,126.6,174.8,124.8z"/>
	<path id="XMLID_32_" class="st2" d="M2.5,130.7c0.1,0,0.2,0,0.3,0c0.1,2.9,0.2,5.7,0.3,8.6c-0.2-0.5-0.6-0.9-0.7-1.4
		C2.4,135.6,2.5,133.1,2.5,130.7z"/>
	<path id="XMLID_31_" class="st4" d="M174.8,140.9c0.1-1.7,0.3-3.4,0.4-5.1C175.1,137.5,175,139.2,174.8,140.9z"/>
	<path id="XMLID_30_" class="st4" d="M175.4,97.9c0-0.6,0-1.2,0-1.8C175.4,96.7,175.4,97.3,175.4,97.9z"/>
	<path id="XMLID_29_" class="st2" d="M175.3,48.9c-0.3-0.2-0.6-0.4-0.9-0.6c0.3-0.2,0.6-0.4,0.9-0.6
		C175.3,48.1,175.3,48.5,175.3,48.9z"/>
	<path id="XMLID_28_" class="st6" d="M2.5,97c0.3,0.1,0.6,0.2,0.9,0.3c-0.3,0.2-0.6,0.4-0.9,0.5C2.5,97.6,2.5,97.3,2.5,97z"/>
	<path id="XMLID_27_" class="st4" d="M175.4,100c0-0.3,0-0.6,0-1C175.4,99.4,175.4,99.7,175.4,100z"/>
	<path id="XMLID_26_" class="st3" d="M171.8,23.6c-0.1-0.2-0.2-0.3-0.3-0.5C171.6,23.3,171.7,23.5,171.8,23.6z"/>
	<path id="XMLID_25_" class="st8" d="M97.7,46.9c1-0.5,2-0.8,2.9-1.4c5.8-3.7,12-5.6,18.9-5.6c6.7-0.1,12.8,1.7,18.6,4.6
		c3.7,1.8,7.2,4,9,8.1c0.2,0.4,0.3,0.9,0.4,1.4c0,3.2,0,6.5,0,9.7c0,21.5,0,43.1,0,64.6c-0.9,1.8-2.2,1.2-3.5,0.5
		c-3.4-1.9-6.7-4.2-10.3-5.7c-7.2-3.1-14.6-3.7-22.3-1.8c-8.2,2.1-14.3,6.9-18.3,14.3c-0.5,1-0.8,2.1-1.3,3.1
		c-0.3,0.5-0.8,1-1.2,1.4c0-14.9,0-29.8,0-44.7c-0.1-0.9-0.3-1.8-0.4-2.7c0.2-0.6,0.5-1.1,0.5-1.7c0-8.7,0-17.5,0-26.2
		c0.2-0.5,0.6-0.9,0.6-1.4c-0.1-5.6,1.3-10.5,5.5-14.5C97.1,48.3,97.3,47.5,97.7,46.9L97.7,46.9z"/>
	<path id="XMLID_24_" class="st8" d="M75.3,43.9c1.7,1,3.3,2,5,3l0,0c0.5,0.9,0.9,1.8,1.5,2.6c3.3,3.7,5,7.9,5,12.9
		c0,1.4,0.4,2.9,0.6,4.3c0,23.7,0,47.3-0.1,71c0,0.7,0,1.4-0.4,2.2c-0.3-0.5-0.6-0.9-0.8-1.4c-3.5-9-10-14.7-19.3-17.1
		c-11.5-3-21.8-0.2-31.3,6.4c-0.7,0.5-1.5,1-2.3,1.4c-1.1,0.6-2.2,0.5-2.7-0.9c0-24.9,0-49.8,0-74.7c0.1-0.5,0.1-1,0.2-1.5
		c4.3-6.2,10.9-9.1,17.7-10.9c8.7-2.3,17.4-2,25.6,2.4C74.4,43.8,74.9,43.8,75.3,43.9z"/>
	<path id="XMLID_23_" class="st9" d="M30.6,53.6c0,24.9,0,49.8,0,74.7c-0.2,0-0.5,0-0.7-0.1c0-13.2,0-26.4-0.1-39.6
		c0-1.1,0-2.3,0-3.4c0-2.7,0-5.3,0-8c0-0.6,0-1.1,0-1.7c0-1.4,0-2.8,0-4.2c0-2,0-3.9,0-5.9c0-0.4,0-0.8,0-1.3c0-0.4,0-0.8,0-1.3
		c0-0.6,0-1.1,0-1.7c0-0.7,0-1.4,0-2.1c0-1.4,0-2.8,0-4.2c0-0.3,0-0.6,0-0.8c0-0.1,0-0.3,0-0.4C30.1,53.6,30.3,53.6,30.6,53.6z"/>
	<path id="XMLID_22_" class="st10" d="M147.5,128.3c0-21.5,0-43.1,0-64.6c0-3.2,0-6.5,0-9.7c0.3,0.2,0.5,0.3,0.8,0.5
		c0,2.1,0,4.2,0,6.3c0,0.4,0,0.9,0,1.3c0,4.6,0,9.3,0,13.9c0,11.7,0,23.3,0,35c0,0.6,0,1.1,0,1.7c0,5.2,0,10.4-0.1,15.6
		C147.9,128.2,147.7,128.2,147.5,128.3z"/>
	<path id="XMLID_21_" class="st11" d="M90.5,95.3c0,14.9,0,29.8,0,44.7c-0.3-0.7-0.9-1.3-0.9-2c-0.1-7.1,0-14.1,0-21.2
		c0-6.5,0-13,0-19.5C89.7,96.6,90.2,96,90.5,95.3z"/>
	<path id="XMLID_20_" class="st12" d="M29.7,88.6c0,13.2,0,26.4,0.1,39.6c-0.2-0.1-0.3-0.3-0.5-0.4c0-11.7,0-23.3,0-35
		C29.5,91.4,29.6,90,29.7,88.6z"/>
	<path id="XMLID_19_" class="st12" d="M148.2,128.2c0-5.2,0-10.4,0.1-15.6c0.1,1.4,0.4,2.7,0.4,4.1c0.1,2.3,0,4.6,0,6.9
		C148.5,125.1,148.3,126.7,148.2,128.2z"/>
	<path id="XMLID_18_" class="st6" d="M29.8,54c0,0.3,0,0.6,0,0.8c-0.1,0-0.3,0-0.4,0c-1.3-0.2-1.6-1.1-0.5-1.6
		c0.7-0.3,0.5-2.3,1.9-1.1c-0.1,0.5-0.1,1-0.2,1.5c-0.3,0-0.5,0-0.8,0C29.8,53.7,29.8,53.9,29.8,54z"/>
	<path id="XMLID_17_" class="st5" d="M29.3,54.8c0.1,0,0.3,0,0.4,0c0,1.4,0,2.8,0,4.2c-0.1-0.6-0.3-1.1-0.4-1.7
		C29.3,56.5,29.3,55.7,29.3,54.8z"/>
	<path id="XMLID_16_" class="st4" d="M148.7,67.5c4,0.1,8,0.3,12,0.4c4,0.1,8.1,0.2,12.1,0.5c0.7,0.1,1.7,1.2,1.9,2
		c0.3,1.2,0.1,2.6,0.1,4.1c-8.8-0.2-17.5-0.5-26.1-0.7c0-0.4,0-0.8,0-1.3c1.3-0.7,1.3-1.4,0-2.1C148.7,69.5,148.7,68.5,148.7,67.5z"
		/>
	<path id="XMLID_15_" class="st13" d="M90.5,64.7c0,8.7,0,17.5,0,26.2c0,0.6-0.3,1.1-0.5,1.7c-0.2-0.7-0.4-1.5-0.4-2.2
		c0-8.7,0-17.4,0-26.1c0-0.4,0.1-0.8,0.6-1.2C90.3,63.6,90.4,64.1,90.5,64.7z"/>
	<path id="XMLID_14_" class="st12" d="M148.2,110.9c0-11.7,0-23.3,0-35c0.1,0,0.3,0,0.4,0c0,5.5,0,11,0,16.4c0,5.5,0,10.9,0,16.4
		C148.6,109.5,148.4,110.2,148.2,110.9z"/>
	<path id="XMLID_13_" class="st14" d="M148.7,75.9c-0.1,0-0.3,0-0.4,0c0-4.6,0-9.3,0-13.9c0.1,1.8,0.3,3.6,0.4,5.5c0,1,0,2,0,3
		c0,0.7,0,1.4,0,2.1c0,0.4,0,0.8,0,1.3C148.7,74.5,148.7,75.2,148.7,75.9z"/>
	<path id="XMLID_12_" class="st2" d="M145.7,45.9c0.3,0.6,0.6,1.2,0.9,1.7c-0.3,0.1-0.5,0.3-0.8,0.4c-0.4-0.6-0.7-1.1-1.1-1.7
		C145.1,46.3,145.4,46.1,145.7,45.9z"/>
	<path id="XMLID_11_" class="st14" d="M148.2,60.7c0-2.1,0-4.2,0-6.3C148.2,56.5,148.2,58.6,148.2,60.7z"/>
	<path id="XMLID_10_" class="st2" d="M97.7,46.9c-1.3-0.2-1.7-0.6-0.3-2C97.5,45.8,97.6,46.3,97.7,46.9
		C97.7,46.9,97.7,46.9,97.7,46.9z"/>
	<path id="XMLID_9_" class="st2" d="M80.3,46.9c0.1-0.3,0.3-0.5,0.4-0.8c0.1,0.1,0.2,0.2,0.3,0.2C80.8,46.5,80.5,46.7,80.3,46.9
		C80.3,46.9,80.3,46.9,80.3,46.9z"/>
	<path id="XMLID_8_" class="st12" d="M29.7,77.2c0,2.7,0,5.3,0,8C29.7,82.5,29.7,79.9,29.7,77.2z"/>
	<path id="XMLID_7_" class="st12" d="M29.7,71.3c0,1.4,0,2.8,0,4.2C29.7,74.1,29.7,72.7,29.7,71.3z"/>
	<path id="XMLID_6_" class="st5" d="M29.7,61.2c0,0.6,0,1.1,0,1.7c-0.3-0.3-0.7-0.6-0.8-1C28.9,61.7,29.5,61.4,29.7,61.2z"/>
	<path id="XMLID_5_" class="st5" d="M29.7,64.1c0,0.4,0,0.8,0,1.3c-0.3-0.2-0.5-0.5-0.8-0.7C29.2,64.5,29.5,64.3,29.7,64.1z"/>
	<path id="XMLID_4_" class="st5" d="M29.8,54c0-0.1,0-0.3,0-0.4C29.8,53.7,29.8,53.9,29.8,54z"/>
	<path id="XMLID_3_" class="st4" d="M148.7,72.6c0-0.7,0-1.4,0-2.1C150,71.1,150,71.9,148.7,72.6z"/>
</g>
</svg>
