<svg aria-hidden="true" style="width:0;height:0;position:absolute;overflow:hidden" xmlns="http://www.w3.org/2000/svg"><defs><symbol id="icon-arrow-small-right" viewBox="0 0 32 32"><path d="M17.867 16.947a1.334 1.334 0 0 0 0-1.894l-6.12-6.107a1.334 1.334 0 1 1 1.88-1.894l6.12 6.12a4.001 4.001 0 0 1 0 5.654l-6.12 6.12a1.337 1.337 0 0 1-2.172-.434 1.331 1.331 0 0 1 .292-1.46l6.12-6.107z"/></symbol><symbol id="icon-arrow-down" viewBox="0 0 28 32"><path d="M5.898 12h16.513l-7.423 8.391c-.221.25-.521.39-.834.39s-.613-.14-.834-.39L5.898 12z"/></symbol><symbol id="icon-arrow-right" viewBox="0 0 43 32"><path fill="none" stroke="#eac645" style="stroke:var(--color2,#eac645)" stroke-linejoin="round" stroke-linecap="round" stroke-width="5.333" d="M3.555 16h35.556m0 0L25.778 2.667M39.111 16 25.778 29.333"/></symbol><symbol id="icon-arrow-up" viewBox="0 0 55 32"><path d="M1.091 25.309 25.527.8c.291-.291.606-.496.945-.617.339-.122.703-.183 1.091-.183s.752.061 1.091.183c.339.12.655.326.946.617l24.509 24.509c.679.679 1.018 1.527 1.018 2.545s-.364 1.891-1.091 2.618c-.727.727-1.576 1.091-2.545 1.091s-1.818-.364-2.545-1.091L27.564 9.09 6.182 30.472c-.679.679-1.515 1.018-2.508 1.018-.995 0-1.856-.364-2.583-1.091S0 28.823 0 27.854c0-.97.364-1.818 1.091-2.545z"/></symbol><symbol id="icon-blank-small" viewBox="0 0 32 32"><path d="M31.229 9.921a15.221 15.221 0 0 0-2.138-.91v17.947A14.622 14.622 0 0 0 24 26.033c-2.764 0-5.498.806-8 2.357V10.339c-2.356-1.387-5.076-2.208-8-2.208-2.604 0-5.062.656-7.229 1.79-.48.239-.771.761-.771 1.313v18.021c0 .865.684 1.477 1.455 1.477.233 0 .465-.06.698-.179 1.76-.94 3.738-1.537 5.847-1.537 3.011 0 5.789 1.223 8 2.984 2.211-1.76 4.989-2.984 8-2.984 2.109 0 4.087.597 5.847 1.552.233.119.465.179.698.179.756 0 1.455-.612 1.455-1.477V11.234c0-.552-.291-1.074-.771-1.313zM13.091 26.958c-1.658-.612-3.36-.925-5.091-.925s-3.433.313-5.091.925V12.174a12.672 12.672 0 0 1 10.182.015v14.769zM26.182 2.909l-7.273 7.459V24.54l7.273-6.713V2.909z"/></symbol><symbol id="icon-emblem-trident" viewBox="0 0 20 32"><path d="M9.005 30.888a8.64 8.64 0 0 1-3.414-5.351H0V2.42c2.991 1.443 5.153 4.599 5.388 7.876l.846 6.493-.407-.045c-.893 0-1.676.812-1.676 1.608 0 .752.595 1.383 1.378 1.548l1.018.226c1.676-3.051 2.631-6.042 2.631-8.973 0-2.645-.36-5.291-.423-7.996 0-1.202.486-2.3 1.253-3.156.783.857 1.253 1.954 1.253 3.156 0 2.705-.423 5.351-.423 7.996 0 2.931.955 5.922 2.631 8.973l1.018-.226c.783-.165 1.378-.812 1.378-1.548 0-.812-.783-1.608-1.676-1.608l-.423.06.846-6.493c.423-3.277 2.396-6.448 5.388-7.876v23.117h-5.576c-.423 2.179-1.613 4.148-3.414 5.351-.423.286-.783.631-1.018 1.097-.219-.466-.579-.812-.987-1.112zM2.647 17.556c.235-.857.893-1.608 1.738-2.074l-.658-5.351a8.288 8.288 0 0 0-2.036-4.374v11.784h.955v.015zm2.819 6.373c0-.812.125-1.548.298-2.3l-.783-.18c-1.143-.346-2.036-1.203-2.334-2.3h-.955v4.78h3.774zm3.712 0c0-.977-.783-1.834-1.801-1.954-.172.631-.298 1.263-.298 1.954h2.099zm0 1.623H7.314c.298 1.263.955 2.42 1.864 3.397v-3.397zm2.631-5.005c-.72-1.262-1.378-2.585-1.801-3.968-.423 1.383-1.081 2.706-1.801 3.968.72.165 1.316.631 1.801 1.157.486-.526 1.081-.992 1.801-1.157zm1.143 3.382c0-.691-.125-1.323-.297-1.954-1.018.12-1.801.977-1.801 1.954h2.099zm-.235 1.623h-1.864v3.397c.908-.992 1.566-2.134 1.864-3.397zm5.623-1.623v-4.78h-.955c-.298 1.097-1.206 1.954-2.334 2.3l-.783.18c.172.752.298 1.488.298 2.3h3.774zm0-6.373V5.757c-1.081 1.202-1.864 2.706-2.036 4.374l-.658 5.351c.846.466 1.504 1.203 1.739 2.074h.955z"/></symbol><symbol id="icon-handbag" viewBox="0 0 32 32"><path d="M25.333 9.333h-4V8a5.332 5.332 0 1 0-10.666 0v1.333h-4a1.335 1.335 0 0 0-1.334 1.334v14.667a4.003 4.003 0 0 0 4 4h13.333a4.003 4.003 0 0 0 4-4V10.667a1.335 1.335 0 0 0-1.334-1.334zM13.333 8a2.668 2.668 0 0 1 5.334 0v1.333h-5.333V8zM24 25.333a1.335 1.335 0 0 1-1.334 1.334H9.333a1.335 1.335 0 0 1-1.334-1.334V12h2.667v1.333a1.335 1.335 0 0 0 2.277.943c.25-.251.391-.589.391-.943V12h5.333v1.333a1.333 1.333 0 1 0 2.667 0V12h2.667v13.333z"/></symbol><symbol id="icon-logo" viewBox="0 0 126 32"><path fill="#f6f6f6" style="fill:var(--color4,#f6f6f6)" d="m0 2.286 14.008 13.861 13.42 13.567V2.285H-.001z"/><path fill="#f6f6f6" style="fill:var(--color4,#f6f6f6)" d="m3.82 5.91 10.237 10.139 9.649 9.845H3.82V5.91z"/><path fill="#4f2ee8" style="fill:var(--color3,#4f2ee8)" d="M23.771 25.959 13.534 15.82 3.885 5.975h19.886v19.984z"/><path fill="#4f2ee8" style="fill:var(--color3,#4f2ee8)" d="m7.935 10.024 11.657 11.657H7.935V10.024z"/><path fill="#f6f6f6" style="fill:var(--color4,#f6f6f6)" d="m7.935 10.024 11.657 11.657V10.024H7.935z"/><path style="fill:var(--color5,#000)" d="M47.659 12.266c0-2.366-1.749-3.703-4.773-3.703h-6.315v14.709h6.665c3.045 0 4.999-1.461 4.999-4.299 0-2.201-1.317-3.333-2.859-3.6v-.041c1.214-.411 2.283-1.255 2.283-3.065zm-8.64 2.387v-4.011h3.929c1.461 0 2.263.72 2.263 2.016s-.658 1.995-2.407 1.995h-3.785zm0 1.83h4.299c1.543 0 2.469.843 2.469 2.345 0 1.378-.638 2.366-2.736 2.366h-4.032v-4.711zM54.516 23.581c-3.291 0-5.287-2.283-5.287-5.554s1.995-5.554 5.287-5.554c3.291 0 5.287 2.283 5.287 5.554s-1.995 5.554-5.287 5.554zm0-1.77c2.057 0 3.127-1.625 3.127-3.785 0-2.181-1.07-3.785-3.127-3.785s-3.127 1.605-3.127 3.785c0 2.16 1.07 3.785 3.127 3.785zM66.027 23.581c-3.291 0-5.287-2.283-5.287-5.554s1.995-5.554 5.287-5.554c3.291 0 5.287 2.283 5.287 5.554s-1.995 5.554-5.287 5.554zm0-1.77c2.057 0 3.127-1.625 3.127-3.785 0-2.181-1.07-3.785-3.127-3.785S62.9 15.846 62.9 18.026c0 2.16 1.07 3.785 3.127 3.785zM72.807 8.563v14.709h2.16v-3.806l1.461-1.378 3.312 5.184h2.592l-4.423-6.603L81.9 12.76h-2.654l-4.279 4.217V8.563h-2.16zM87.539 16.915c-1.522-.35-2.695-.432-2.695-1.502 0-.741.699-1.234 1.995-1.234 1.687 0 2.098.843 2.242 1.666h2.098c-.144-1.831-1.502-3.374-4.361-3.374-2.633 0-4.155 1.378-4.155 3.106 0 2.386 2.263 2.715 3.929 3.106 1.543.37 2.798.473 2.798 1.79 0 .658-.638 1.399-2.139 1.399-2.222 0-2.715-.967-2.818-2.098h-2.098c.103 2.222 1.563 3.806 4.958 3.806 2.551 0 4.279-1.255 4.279-3.271 0-2.51-2.098-2.942-4.032-3.394zM98.633 12.472c-1.769 0-2.859.823-3.415 1.646h-.041V8.564h-2.16v14.709h2.16v-6.398c0-1.563 1.131-2.571 2.715-2.571 1.502 0 2.098.905 2.098 2.325v6.645h2.181v-7.262c0-2.407-1.543-3.538-3.538-3.538zM108.796 21.811c-1.913 0-3.045-1.461-3.045-3.23h8.064c0-3.744-1.666-6.11-5.061-6.11-3.168 0-5.163 2.139-5.163 5.554 0 3.291 1.995 5.554 5.266 5.554 2.695 0 4.258-1.522 4.793-3.518h-2.16c-.185.638-.905 1.749-2.695 1.749zm-.042-7.632c1.749 0 2.901 1.173 2.901 2.798h-5.904c0-1.625 1.255-2.798 3.003-2.798zM115.337 8.563v14.709h2.181V8.563h-2.181zM124.573 10.333V8.564a7.6 7.6 0 0 0-1.44-.144c-1.728 0-2.674.782-2.674 3.003v1.337h-1.502v1.769h1.502v8.743h2.181v-8.743h1.934V12.76h-1.934v-1.152c0-1.193.535-1.337 1.934-1.275z"/></symbol><symbol id="icon-logo-dark" viewBox="0 0 126 32"><path fill="#f6f6f6" style="fill:var(--color4,#f6f6f6)" d="m0 2.286 14.008 13.861 13.42 13.567V2.285H-.001z"/><path fill="#f6f6f6" style="fill:var(--color4,#f6f6f6)" d="m3.82 5.91 10.237 10.139 9.649 9.845H3.82V5.91z"/><path fill="#4f2ee8" style="fill:var(--color3,#4f2ee8)" d="M23.771 25.959 13.534 15.82 3.885 5.975h19.886v19.984z"/><path fill="#4f2ee8" style="fill:var(--color3,#4f2ee8)" d="m7.935 10.024 11.657 11.657H7.935V10.024z"/><path fill="#f6f6f6" style="fill:var(--color4,#f6f6f6)" d="m7.935 10.024 11.657 11.657V10.024H7.935z"/><path fill="#f3f3f3" style="fill:var(--color6,#f3f3f3)" d="M47.659 12.266c0-2.366-1.749-3.703-4.773-3.703h-6.315v14.709h6.665c3.045 0 4.999-1.461 4.999-4.299 0-2.201-1.317-3.333-2.859-3.6v-.041c1.214-.411 2.283-1.255 2.283-3.065zm-8.64 2.387v-4.011h3.929c1.461 0 2.263.72 2.263 2.016s-.658 1.995-2.407 1.995h-3.785zm0 1.83h4.299c1.543 0 2.469.843 2.469 2.345 0 1.378-.638 2.366-2.736 2.366h-4.032v-4.711zM54.516 23.581c-3.291 0-5.287-2.283-5.287-5.554s1.995-5.554 5.287-5.554c3.291 0 5.287 2.283 5.287 5.554s-1.995 5.554-5.287 5.554zm0-1.77c2.057 0 3.127-1.625 3.127-3.785 0-2.181-1.07-3.785-3.127-3.785s-3.127 1.605-3.127 3.785c0 2.16 1.07 3.785 3.127 3.785zM66.027 23.581c-3.291 0-5.287-2.283-5.287-5.554s1.995-5.554 5.287-5.554c3.291 0 5.287 2.283 5.287 5.554s-1.995 5.554-5.287 5.554zm0-1.77c2.057 0 3.127-1.625 3.127-3.785 0-2.181-1.07-3.785-3.127-3.785S62.9 15.846 62.9 18.026c0 2.16 1.07 3.785 3.127 3.785zM72.807 8.563v14.709h2.16v-3.806l1.461-1.378 3.312 5.184h2.592l-4.423-6.603L81.9 12.76h-2.654l-4.279 4.217V8.563h-2.16zM87.539 16.915c-1.522-.35-2.695-.432-2.695-1.502 0-.741.699-1.234 1.995-1.234 1.687 0 2.098.843 2.242 1.666h2.098c-.144-1.831-1.502-3.374-4.361-3.374-2.633 0-4.155 1.378-4.155 3.106 0 2.386 2.263 2.715 3.929 3.106 1.543.37 2.798.473 2.798 1.79 0 .658-.638 1.399-2.139 1.399-2.222 0-2.715-.967-2.818-2.098h-2.098c.103 2.222 1.563 3.806 4.958 3.806 2.551 0 4.279-1.255 4.279-3.271 0-2.51-2.098-2.942-4.032-3.394zM98.633 12.472c-1.769 0-2.859.823-3.415 1.646h-.041V8.564h-2.16v14.709h2.16v-6.398c0-1.563 1.131-2.571 2.715-2.571 1.502 0 2.098.905 2.098 2.325v6.645h2.181v-7.262c0-2.407-1.543-3.538-3.538-3.538zM108.796 21.811c-1.913 0-3.045-1.461-3.045-3.23h8.064c0-3.744-1.666-6.11-5.061-6.11-3.168 0-5.163 2.139-5.163 5.554 0 3.291 1.995 5.554 5.266 5.554 2.695 0 4.258-1.522 4.793-3.518h-2.16c-.185.638-.905 1.749-2.695 1.749zm-.042-7.632c1.749 0 2.901 1.173 2.901 2.798h-5.904c0-1.625 1.255-2.798 3.003-2.798zM115.337 8.563v14.709h2.181V8.563h-2.181zM124.573 10.333V8.564a7.6 7.6 0 0 0-1.44-.144c-1.728 0-2.674.782-2.674 3.003v1.337h-1.502v1.769h1.502v8.743h2.181v-8.743h1.934V12.76h-1.934v-1.152c0-1.193.535-1.337 1.934-1.275z"/></symbol><symbol id="icon-user" viewBox="0 0 23 32"><path d="M.296 30.963a11.26 11.26 0 1 1 22.519 0H.297zm11.26-12.667c-4.666 0-8.444-3.779-8.444-8.444s3.779-8.444 8.444-8.444C16.222 1.408 20 5.187 20 9.852s-3.779 8.444-8.444 8.444z"/></symbol><symbol id="icon-burger" viewBox="0 0 46 32"><path d="M0 2.274A2.274 2.274 0 0 1 2.274 0h18.309a2.275 2.275 0 0 1 1.608 3.882 2.275 2.275 0 0 1-1.608.666H2.274A2.275 2.275 0 0 1 0 2.274zM0 16a2.274 2.274 0 0 1 2.274-2.274H43.44a2.275 2.275 0 0 1 1.608 3.882 2.275 2.275 0 0 1-1.608.666H2.274A2.275 2.275 0 0 1 0 16zm2.274 11.451a2.275 2.275 0 0 0-1.608 3.882 2.275 2.275 0 0 0 1.608.666h27.451a2.275 2.275 0 0 0 1.608-3.882 2.275 2.275 0 0 0-1.608-.666H2.274z"/></symbol><symbol id="icon-basket" viewBox="0 0 32 32"><path fill="none" stroke-linejoin="round" stroke-linecap="round" stroke-width="2.909" d="M12 4h8M4 8h24m-2.667 0-.935 14.026c-.14 2.104-.21 3.157-.665 3.954a4 4 0 0 1-1.731 1.619c-.826.4-1.881.4-3.99.4h-4.025c-2.109 0-3.163 0-3.99-.4a4.005 4.005 0 0 1-1.731-1.619c-.455-.798-.525-1.85-.665-3.954L6.666 8m6.667 6v6.667M18.667 14v6.667"/></symbol><symbol id="icon-close" viewBox="0 0 32 32"><path stroke-linejoin="round" stroke-linecap="round" stroke-width="5.333" d="M28.444 3.556 3.555 28.445m.001-24.889 24.889 24.889"/></symbol><symbol id="icon-message" viewBox="0 0 32 32"><path fill="none" stroke="#111" style="stroke:var(--color3,#111)" stroke-linejoin="round" stroke-linecap="round" stroke-width="2.286" d="m28.666 24-8.857-8m-7.619 0-8.857 8M2.667 9.333l10.887 7.621c.882.617 1.322.926 1.802 1.045.423.106.866.106 1.29 0 .479-.12.92-.428 1.802-1.045l10.887-7.621M9.067 26.667h13.867c2.24 0 3.36 0 4.216-.436a3.996 3.996 0 0 0 1.748-1.748c.436-.856.436-1.976.436-4.216v-8.533c0-2.24 0-3.36-.436-4.216A3.991 3.991 0 0 0 27.15 5.77c-.856-.436-1.976-.436-4.216-.436H9.067c-2.24 0-3.36 0-4.216.436a3.991 3.991 0 0 0-1.748 1.748c-.436.856-.436 1.976-.436 4.216v8.533c0 2.24 0 3.36.436 4.216a3.996 3.996 0 0 0 1.748 1.748c.856.436 1.976.436 4.216.436z"/></symbol><symbol id="icon-lock" viewBox="0 0 32 32"><path fill="none" stroke="#111" style="stroke:var(--color3,#111)" stroke-linejoin="round" stroke-linecap="round" stroke-width="2.286" d="M22.667 14.667v-4a6.667 6.667 0 0 0-13.334 0v4M10.4 28h11.2c2.24 0 3.36 0 4.216-.436a3.991 3.991 0 0 0 1.748-1.748C28 24.96 28 23.84 28 21.6v-.533c0-2.24 0-3.36-.436-4.216a3.991 3.991 0 0 0-1.748-1.748c-.856-.436-1.976-.436-4.216-.436H10.4c-2.24 0-3.36 0-4.216.436a3.996 3.996 0 0 0-1.748 1.748C4 17.707 4 18.827 4 21.067v.533c0 2.24 0 3.36.436 4.216a3.991 3.991 0 0 0 1.748 1.748C7.04 28 8.16 28 10.4 28z"/></symbol><symbol id="icon-emblem" xmlns="http://www.w3.org/2000/svg" viewBox="0 0 20 32" fill="none"><path d="M9.005 30.888a8.64 8.64 0 0 1-3.414-5.351H0V2.42c2.991 1.443 5.153 4.6 5.388 7.876l.845 6.493-.407-.045c-.893 0-1.676.812-1.676 1.608 0 .752.595 1.383 1.379 1.548l1.018.226c1.675-3.051 2.63-6.042 2.63-8.973 0-2.646-.36-5.291-.422-7.997 0-1.202.485-2.3 1.253-3.156.783.857 1.253 1.954 1.253 3.156 0 2.706-.423 5.351-.423 7.997 0 2.93.955 5.922 2.631 8.973l1.018-.226c.783-.165 1.378-.811 1.378-1.548 0-.811-.783-1.608-1.675-1.608l-.423.06.845-6.493C15.035 7.034 17.01 3.863 20 2.435v23.117h-5.576c-.422 2.18-1.613 4.148-3.414 5.35-.423.286-.783.632-1.018 1.098-.22-.466-.58-.812-.987-1.112ZM2.647 17.556c.235-.857.893-1.609 1.738-2.075l-.658-5.35a8.286 8.286 0 0 0-2.036-4.374V17.54h.956v.015Zm2.819 6.373c0-.812.125-1.548.298-2.3l-.784-.18c-1.143-.346-2.036-1.203-2.333-2.3H1.69v4.78h3.775Zm3.712 0c0-.977-.783-1.834-1.801-1.954-.173.63-.298 1.262-.298 1.954h2.099Zm0 1.623H7.314c.298 1.262.955 2.42 1.864 3.397v-3.397Zm2.63-5.005c-.72-1.263-1.377-2.585-1.8-3.968-.423 1.383-1.08 2.705-1.801 3.968.72.165 1.315.631 1.8 1.157.486-.526 1.082-.992 1.802-1.157Zm1.144 3.382c0-.692-.125-1.323-.297-1.954-1.018.12-1.801.977-1.801 1.954h2.098Zm-.235 1.623h-1.863v3.397c.908-.992 1.566-2.135 1.863-3.397Zm5.623-1.623v-4.78h-.956c-.297 1.097-1.206 1.954-2.333 2.3l-.783.18c.172.752.297 1.488.297 2.3h3.775Zm0-6.373v-11.8c-1.08 1.203-1.864 2.706-2.036 4.375l-.658 5.35c.846.466 1.504 1.203 1.738 2.075h.956Z" fill="#fff"/></symbol><symbol id="icon-remove" viewBox="0 0 34 32"><path fill="none" stroke="#fff" style="stroke:var(--color1,#fff)" stroke-linejoin="round" stroke-linecap="round" stroke-width="3.048" d="M12.571 2.667h8.381M4.19 6.857h25.143m-2.793 0-.98 14.694c-.147 2.204-.221 3.307-.697 4.143a4.195 4.195 0 0 1-1.814 1.697c-.866.419-1.97.419-4.18.419h-4.217c-2.209 0-3.314 0-4.18-.419a4.194 4.194 0 0 1-1.814-1.697c-.476-.836-.55-1.938-.697-4.143l-.98-14.694m6.987 6.286v6.984m5.587-6.984v6.984"/></symbol><symbol id="icon-arrow" viewBox="0 0 32 32"><path d="M31.68 8.593 30.077 6.99c-.214-.214-.46-.321-.738-.321s-.523.107-.737.321L16 19.591 3.399 6.99c-.214-.214-.46-.321-.738-.321s-.524.107-.738.321L.32 8.593c-.214.214-.321.46-.321.738s.107.524.321.737L15.262 25.01c.214.214.46.321.738.321s.523-.107.737-.321L31.68 10.068c.214-.214.32-.46.32-.737s-.106-.524-.32-.738z"/><symbol id="icon-linkedin" viewBox="0 0 32 32"><path d="M2.421 10.12c.972.622 2.823.645 4.026.553s3.078-1.568 3.193-4.15c.116-2.582-1.735-3.942-1.735-3.942-2.221-1.89-5.275-.806-5.923-.415-.648.393-2.384 1.96-1.897 4.104s1.176 3.106 2.337 3.85zM1.56 3.405c.477-.669 1.492-1.366 3.453-1.073S7.529 3.473 8.05 4.286s.485 1.539.485 1.539-1.266-2.178-1.457-2.143-.468.398-.33.623c.14.225 1.58 2.144 1.528 2.283s-.104.536-.173.433c-.07-.104-1.215-2.144-1.371-2.11-.156.035-.365.277-.26.554.104.277 1.353 1.954 1.301 2.023s-.277.38-.347.277c-.07-.104-1.024-1.989-1.215-1.937s-.346.26-.225.57c.122.311 1.145 1.66 1.076 1.747s-.26.277-.347.225c-.087-.052-1.076-1.643-1.232-1.625s-.468.345-.295.553c.173.207 1.058 1.331.955 1.384-.105.052-.764.172-.868.138s-.59-1.124-.746-1.124-.486.242-.434.45c.052.207.66.725.486.795s-1.961-.19-2.759-.761-1.667-2.802-.261-4.773zm1.197 4.012c.139-.138.122-.19.122-.363s-.469-.502-.555-.779c-.087-.277-.018-1.09.381-1.505s.503-.691.173-.83c-.33-.138-1.041.295-1.198 1.211s0 1.712.278 2.058.655.35.798.208zm1.718 6.397c-.347-.104-2.221-.104-2.447-.069s-.295 2.594-.26 2.87 0 .71.225.727c0 0 .382.052.486.017s.174-2.576.225-2.767c.053-.19 1.91-.035 1.996-.121.088-.087.122-.554-.225-.658zm4.495-1.573c-.695-.259-4.287-.345-5.519-.363S.819 11.829.64 12.12c-.139.225-.07 5.204-.139 8.472S.223 28.84.328 29.03c.104.19 2.1 1.608 2.256 1.729s.555.173 1.614.155c1.058-.017 4.512.156 4.929.052s.885-.26 1.024-.553c.139-.294.174-1.799.243-5.205s.572-7.936.486-9.735-1.215-2.973-1.91-3.232zm.034 4.271c-.104-.035-1.076-1.643-1.25-1.453s-.225.363-.017.675c.208.31 1.198 1.815 1.215 1.988s.052 1.02-.018 1.02c-.07 0-1.25-1.885-1.388-1.815s-.277.38-.243.483c.035.104 1.545 2.075 1.579 2.421s0 .848-.07.761c-.069-.087-1.18-2.282-1.37-2.178-.192.104-.365.502-.208.761s1.492 2.143 1.527 2.247c.035.104 0 .933-.086.882-.087-.052-1.232-2.179-1.405-2.162-.174.017-.348.45-.278.692s1.701 2.369 1.666 2.61c-.035.242-.018 1.159-.104 1.107s-1.44-2.507-1.562-2.542c-.121-.035-.364.433-.295.622.07.19 1.788 3.009 1.805 3.25.018.242 0 1.574-.121 1.505s-1.666-3.113-1.926-3.13c-.26-.017-.295.519-.243.675.051.155 2.03 3.216 2.082 3.389s0 .346-.191.433c-.191.087-.277.069-.295.017s-1.527-2.697-1.77-2.784-.417.276-.399.363c.018.087 1.84 2.473 1.666 2.628s-.66.173-.781.052c-.122-.12-1.631-2.732-1.805-2.732s-.52.45-.399.57c.122.122 1.596 2.214 1.458 2.214s-.625.155-.746.052-1.284-2.058-1.475-2.041c-.191.017-.365.242-.347.294s1.18 1.625 1.041 1.66-.625.035-.712-.017c-.088-.052-.833-1.486-.974-1.52s-.433.26-.433.346c0 .087.92 1.141.712 1.193s-1.267-.052-1.336-.087-.434-.415-.451-.744c-.018-.328.104-15.216.26-15.51.052-.098 3.09.035 4.668.155 1.579.121 2.62-.086 2.845.19.226.277.295 1.66.209 1.574s-.694-1.28-.902-1.227c-.208.052-.365.466-.26.691.104.225 1.11 1.66 1.162 1.833s.07.622-.034.587zm22.871 1.608c-.155-2.162-1.353-3.822-3.037-4.894s-4.529-1.366-6.455-.969-3.957 2.162-4.026 2.144-.017-1.487-.07-1.85-.711-.311-2.36-.329-3.875.01-3.904.139c-.087.38.07 7.954.087 10.686s-.121 5.724 0 6.069c.121.346 1.232 1.625 1.649 1.625s4.443-.069 5.119-.155c.677-.087.694-.726.694-1.608s-.017-7.539.277-9.631c.295-2.092 1.961-2.87 3.315-2.525 1.353.346 1.579 1.85 1.857 3.683s-.242 7.037-.26 7.608.07 2.23.382 2.352c.313.122 5.05.018 5.744-.017s.937-.121 1.041-.588c.105-.467.105-9.579-.052-11.74zm-2.545-1.234c.058.092 1.631 2.605 1.631 2.813s-.023.715-.081.657c-.058-.057-1.087-1.982-1.284-1.982s-.451.404-.37.565c.081.162 1.562 2.398 1.573 2.57.012.174.035 1.223-.023 1.13s-1.354-2.386-1.481-2.386-.266.392-.266.576c0 .185 1.655 2.72 1.666 2.801.012.08 0 1.671-.139 1.648s-.625-.83-1.052-1.74c-.428-.911-.486-1.177-.695-1.13-.207.046-.139.738-.092.91s1.643 2.836 1.666 2.975.047 1.325-.093 1.221c-.139-.104-1.55-3.148-1.724-3.17s-.393.483-.347.576c.047.092 1.77 2.974 1.817 3.389s0 .645-.128.645c-.127 0-.185-.08-.243-.195s-1.62-2.767-1.7-2.779c-.081-.012-.325.484-.232.634s1.504 2.237 1.423 2.26-.671.023-.74-.023c-.07-.046-1.262-1.856-1.343-1.856-.08 0-.393.392-.335.495s1.006 1.303.891 1.337c-.115.035-.567.046-.637-.023s-.764-1.325-.938-1.314c-.174.012-.324.369-.289.438s.705.956.52 1.003c-.185.046-.763.08-.763.012s.302-2.282.325-4.173c.023-1.89-.116-3.908-.325-5.199-.207-1.291-.346-2.525-1.26-3.032-.915-.506-2.488-.76-3.703-.011-1.215.75-1.655 1.567-1.84 1.833s-.207.576-.207.576-.637-1.13-.879-.819c-.243.311-.266.507-.174.588.093.08.775.657.798.899s.081 1.43.023 1.43-.867-1.591-1.052-1.499c-.185.092-.232.692-.208.761s1.041 1.51 1.052 1.695c.012.184 0 1.037-.046 1.003s-1.145-1.994-1.25-1.948c-.104.046-.323.415-.3.553s1.619 2.513 1.63 2.628c.012.115 0 1.43-.104 1.43s-1.387-2.605-1.48-2.605c-.093 0-.405.495-.37.645.034.15 1.781 2.813 1.828 2.997s.058 1.579 0 1.579-1.84-3.643-1.955-3.643c-.115 0-.44.473-.416.518s1.92 3.32 1.92 3.47-.046.184-.046.184-.139.046-.174-.012c-.035-.058-1.538-2.502-1.678-2.537s-.498.358-.416.473 1.562 2.018 1.504 2.098c-.058.08-.729.046-.798 0s-1.157-1.982-1.284-1.96c-.127.023-.44.473-.417.53s1.065 1.465 1.053 1.499c-.011.035-.59.069-.648.012s-.96-1.476-1.18-1.499-.358.461-.289.518c.07.057.845 1.072.705 1.072-.139 0-1.156.069-1.18-.185s.197-5.187.185-6.823c-.011-1.637-.173-8.645-.092-9.026.017-.08 3.251-.011 3.795-.023.543-.011.89.011.936.08s-.023 2.698.162 2.79c.185.092.683-.403.834-.53s.879-.784 2.534-1.556c1.655-.773 3.91-.934 5.055-.68s2.384.611 3.205 1.706c.822 1.095 1.4 2.029 1.55 2.616.15.588.15 1.107.07 1.084-.081-.023-1.041-2.386-1.308-2.329-.268.058-.337.669-.28.761zm-13.049-3.147c-.185-.115-2.187-.08-2.325-.08-.14 0-.22.242-.197.334 0 0-.046.277.046.403s1.713.069 1.886.069.197.854.22 1.027c.023.173.59.046.671.035.081-.012.081-.277.081-.658s-.197-1.015-.382-1.13zm6.652.98c-.174.104-.22.507.081.634s1.62.415 2.314.969c.694.553.718 2.144.729 2.305s.475.288.683.058c.208-.231.115-1.36-.637-2.663s-3.04-1.38-3.17-1.303z"/></symbol><symbol id="icon-github" viewBox="0 0 32 32"><path d="M31.413 13.237c-.31-2.289-1.274-4.06-2.502-6.303s-3.455-3.841-5.026-4.957C22.313.862 20.133.344 18.033.138s-4.702-.221-6.45.241c-2.433.643-3.993 1.31-5.645 2.817s-2.881 3.036-3.925 4.75C.967 9.659.174 12.281.049 13.559c-.126 1.277-.023 3.025.425 5.015.447 1.989 1.457 3.84 2.903 6.072s3.477 3.645 5.83 5.072c2.352 1.426 7.287 2.507 9.158 2.242s4.441-.908 7.081-3.001c2.64-2.093 4.108-5.555 4.912-7.717s1.366-5.716 1.056-8.005zm-3.718 9.821c-.08 0-1.09-1.852-1.147-1.99-.044-.105.413-.954.459-.965.046-.012 1.113 1.943 1.102 1.989s-.333.966-.413.966zM23.817 10.81c-.046-.126-.069-.241-.058-.287s.322-.828.23-1.506c-.093-.678-.39-1.76-.367-1.794s1.228.931 1.916 2.484 1.274 2.737 1.492 4.841.115 3.657-.631 5.072-1.285 2.22-1.698 2.645c-.413.425-1.273.828-1.377.828s-.47-1.863-.758-2.45c-.287-.586-.803-1.357-.792-1.483 0 0 .86-.77 1.159-1.23s1.274-2.082 1.228-3.876c-.046-1.795-.299-3.117-.345-3.243zm4.728 10.661c-.093.08-1.328-2.051-1.263-2.116.104-.103.448-1.207.517-1.253s1.205 2.024 1.205 2.162c0 .138-.367 1.127-.459 1.207zm1.56-5.658c-.148-.127-1.101-2.265-1.227-2.312s-.413.448-.345.633 1.331 2.265 1.366 2.461c.035.195-.092 1.196-.126 1.047s-.987-2.001-1.102-2.001c-.115 0-.425.403-.413.472s1.251 2.369 1.251 2.518c0 .15-.172 1.093-.275.92a195.633 195.633 0 0 1-1.331-2.23c-.023-.058.023-2.806-.115-4.037s-.596-3.668-2.306-5.659-3.523-3.358-6.14-3.98-4.2-.586-6.162-.494c-1.963.092-4.797 1.219-6.737 4.025s-2.226 3.588-2.663 5.612c-.435 2.024.046 5.026.402 6.325.356 1.3 1.285 3.186 2.341 4.163s2.375 1.587 3.408 1.966 2.594.61 2.72.564c.126-.046.069-1.633 0-1.817s-.126-.276-.551-.253c-.424.023-1.193.012-1.698-.218s-.918-.69-1.205-1.207c-.287-.517-.7-1.15-.918-1.392s-.677-.656-.62-.736c.058-.08.919-.161 1.515.023.598.184 1.607.863 2.043 1.139s.998.678 1.194.678c.195 0 .598-.92.77-1.139s.573-.955.401-1.115c-.172-.162-1.228-.207-1.756-.345-.528-.139-1.48-.656-2.158-1.541s-.987-2.208-.975-3.14c.011-.931.918-2.725 1.101-3.082s.425-.69.31-.816c-.115-.126-.608-.816-.723-1.299s.299-1.668.379-1.713.631.104 1.045.161c.412.057 1.33.31 1.675.54s.47.345.665.345c.195 0 1.71-.345 2.227-.46s2.043-.299 2.616-.184 1.435.633 1.584.54c.149-.091.494-.747 1.228-.931s1.985-.265 2.135-.138c.148.127.366 1.449.252 2.128s-.31 1.07-.195 1.254c.115.184.665 1.426.378 2.53-.288 1.104-.7 2.68-2.066 3.726-1.365 1.047-1.813 1.219-1.974 1.323-.16.104 0 .426.149.552s1.159.805 1.652 2.323c.494 1.518.574 2.415.574 2.726s.357.437.631.38c.275-.058.596-.253 1.045-.599.447-.345 1.721-1.253 1.813-1.207s.884 1.736 1.078 1.794.333-.08.355-.195c.023-.115-.619-1.346-.791-1.68-.172-.333-.299-.529-.253-.632s.436-.575.517-.495c.08.081.93 1.427 1.078 1.657s.264.276.104.552c-.16.276-.723 1.012-.998 1.254s-.378.54-.54.414c-.16-.127-.963-1.575-1.09-1.599-.125-.023-.47.287-.435.39s1.09 1.668 1.09 1.737-.529.747-1.079 1.173-.907.69-1.01.54c-.104-.149-1.183-2.656-1.355-2.69s-.527.091-.47.299 1.377 2.53 1.365 2.645-.435.391-.562.276c-.126-.115-1.515-2.979-1.687-3.002s-.47.058-.47.334 1.79 2.817 1.71 2.955c-.081.139-.413.449-.54.323s-1.768-3.404-1.882-3.427c-.115-.023-.528.092-.528.172s1.859 3.53 1.848 3.61c-.012.081-.723.426-.884.345-.16-.08-1.79-3.725-1.916-3.806-.126-.08-.631.265-.596.31.035.047 2.009 3.474 1.905 3.646s-.563.23-.642.15c-.081-.081-1.928-3.611-2.055-3.646s-.516.161-.482.31c.035.15 1.962 3.37 1.905 3.393s-.551.046-.631-.012c-.08-.057-1.745-2.668-1.951-2.725s-.447.253-.447.322 1.595 2.369 1.515 2.392c-.08.023-.608-.023-.723-.092s-1.216-2.024-1.365-2.07c-.15-.046-.505.218-.46.334.046.115 1.125 1.587.988 1.587s-.505.012-.665-.08c-.161-.093-.918-1.634-1.056-1.68-.137-.045-.413.162-.425.219-.011.058.586 1.139.46 1.15s-.54-.012-.643-.092c-.104-.081-.803-1.254-.906-1.288s-.436.15-.402.253.367.609.252.62c-.115.012-2.479-.643-3.752-1.517s-3.65-3.565-4.384-4.381c-.735-.817-1.756-3.255-2.111-4.578s-.447-3.289-.435-4.335c.011-1.047.826-3.795 1.285-4.727s2.226-3.462 3.42-4.669S8.57 1.946 10.6 1.337s3.741-.736 4.682-.725c2.237.028 4.785.357 6.345.886s4.476 2.829 5.199 3.657 1.595 2.312 2.111 3.393c.517 1.08.895 2.012.793 1.931s-.746-1.207-.872-1.196c-.125.012-.401.207-.355.357s1.216 1.966 1.331 2.197c.115.23.23.495.241.54.012.046.16 1.622.115 1.541s-1.159-2.105-1.308-2.162c-.149-.057-.264.172-.23.23.035.057 1.55 2.645 1.55 2.771-.002.127.056 1.185-.093 1.058zM9.288 10.891c.241.23-.31.598-.7 1.46-.39.863-.746 2.565-.54 3.588s.678 2.23 1.779 3.185 2.594 1.012 2.754 1.093c.16.08-.275.655-.367.77s-.08.093-.299-.023c-.217-.115-1.469-1.185-2.777-1.46-1.309-.276-2.111.115-2.399.367s.035.713.402.989.792.794 1.331 1.782c.54.989.872 1.207 1.745 1.506.871.3 1.56.311 1.698.323s.104.414.012.564c-.092.15-.447-.23-.975-.38s-1.515-.241-2.066-.586-2.33-2.427-2.662-3.335c-.333-.909-1.033-2.955-1.045-3.979-.011-1.024-.091-2.771.31-4.082s1.286-3.485 2.628-4.98 3.282-2.645 6.151-2.955c2.869-.311 5.394.551 6.966 1.092s1.94.875 1.94.978c0 0-.471.092-1.71.173s-2.043.737-2.089.817c-.046.08-1.308-.207-2.628-.31-1.32-.104-3.145.482-3.213.482s-.252-.012-.746-.207c-.493-.195-2.846-.713-3.121-.69s-.883.77-1.01 1.886c-.126 1.116.39 1.703.632 1.932zm9.342-9.752c-2.055-.287-3.366-.153-3.455-.069-.206.195-.137.575.115.62.252.046 1.48-.149 3.099.012s2.811.77 3.064.782c.253.011.401-.402.264-.552s-1.033-.506-3.087-.793zM3.412 8.832c-1.63 1.69-1.928 3.91-2.065 4.67s.355 1.08.585.977c.23-.104-.012-.748.517-2.438s1.205-2.3 1.423-2.725c.218-.427-.344-.604-.46-.484zm7.505 6.544c-.184-.483-.046-1.115.069-1.656.115-.54-.402-.518-.528-.391-.333.334-.459 1.392-.333 2.047s.712 1.621 1.022 1.771c.31.15.608-.046.54-.368-.07-.322-.586-.92-.77-1.403zm-1.87 5.302c-.505.334-.012.667.195.667s.412-.08.321-.402c-.092-.322-.396-.344-.517-.265zm1.044.909c-.367.207-.035.678.207.69s.436-.172.447-.414c.012-.241-.493-.366-.653-.276zm1.435.643c-.517.115-.345.622-.092.656s.47-.058.54-.322c.068-.265-.123-.406-.448-.334zm9.215-13.236c.115.011.459.069.619.069s.15.943.23 1.23c.08.288.505.3.665.139.161-.161-.057-1.702-.172-1.851s-1.223.06-1.365.091c-.104.023-.093.31.023.322zm3.052 18.216c.115.023.413-.115.436-.288s-.861-2.265-.942-2.311c-.08-.046-.608.131-.608.23 0 .195.999 2.346 1.113 2.369z"/></symbol></symbol><svg id="icon-favicon" xmlns="http://www.w3.org/2000/svg" width="24" height="24" viewBox="0 0 24 24" fill="none"><g clip-path="url('#clip0_4313_342')"><path d="m0 0 12.257 12.129L24 24V0H0Z" fill="#F6F6F6"/><path d="m3.343 3.171 8.957 8.872 8.443 8.614h-17.4V3.171Z" fill="#F6F6F6"/><path d="m20.8 20.714-8.958-8.872L3.4 3.228h17.4v17.486Z" fill="#4F2EE8"/><path d="M6.943 6.771 11.7 11.53l5.443 5.442h-10.2v-10.2Z" fill="#4F2EE8"/><path d="M6.943 6.771 11.7 11.53l5.443 5.442v-10.2h-10.2Z" fill="#F6F6F6"/></g><defs><clipPath id="clip0_4313_342"><path fill="#fff" d="M0 0h24v24H0z"/></clipPath></defs></svg></defs></svg>