<svg aria-hidden="true" style="width:0;height:0;position:absolute;overflow:hidden" xmlns="http://www.w3.org/2000/svg"><defs><symbol id="icon-arrow-small-right" viewBox="0 0 32 32"><path d="M17.867 16.947a1.334 1.334 0 0 0 0-1.894l-6.12-6.107a1.334 1.334 0 1 1 1.88-1.894l6.12 6.12a4.001 4.001 0 0 1 0 5.654l-6.12 6.12a1.337 1.337 0 0 1-2.172-.434 1.331 1.331 0 0 1 .292-1.46l6.12-6.107z"/></symbol><symbol id="icon-arrow-down" viewBox="0 0 28 32"><path d="M5.898 12h16.513l-7.423 8.391c-.221.25-.521.39-.834.39s-.613-.14-.834-.39L5.898 12z"/></symbol><symbol id="icon-arrow-right" viewBox="0 0 43 32"><path fill="none" stroke="#eac645" style="stroke:var(--color2,#eac645)" stroke-linejoin="round" stroke-linecap="round" stroke-width="5.333" d="M3.555 16h35.556m0 0L25.778 2.667M39.111 16 25.778 29.333"/></symbol><symbol id="icon-arrow-up" viewBox="0 0 55 32"><path d="M1.091 25.309 25.527.8c.291-.291.606-.496.945-.617.339-.122.703-.183 1.091-.183s.752.061 1.091.183c.339.12.655.326.946.617l24.509 24.509c.679.679 1.018 1.527 1.018 2.545s-.364 1.891-1.091 2.618c-.727.727-1.576 1.091-2.545 1.091s-1.818-.364-2.545-1.091L27.564 9.09 6.182 30.472c-.679.679-1.515 1.018-2.508 1.018-.995 0-1.856-.364-2.583-1.091S0 28.823 0 27.854c0-.97.364-1.818 1.091-2.545z"/></symbol><symbol id="icon-blank-small" viewBox="0 0 32 32"><path d="M31.229 9.921a15.221 15.221 0 0 0-2.138-.91v17.947A14.622 14.622 0 0 0 24 26.033c-2.764 0-5.498.806-8 2.357V10.339c-2.356-1.387-5.076-2.208-8-2.208-2.604 0-5.062.656-7.229 1.79-.48.239-.771.761-.771 1.313v18.021c0 .865.684 1.477 1.455 1.477.233 0 .465-.06.698-.179 1.76-.94 3.738-1.537 5.847-1.537 3.011 0 5.789 1.223 8 2.984 2.211-1.76 4.989-2.984 8-2.984 2.109 0 4.087.597 5.847 1.552.233.119.465.179.698.179.756 0 1.455-.612 1.455-1.477V11.234c0-.552-.291-1.074-.771-1.313zM13.091 26.958c-1.658-.612-3.36-.925-5.091-.925s-3.433.313-5.091.925V12.174a12.672 12.672 0 0 1 10.182.015v14.769zM26.182 2.909l-7.273 7.459V24.54l7.273-6.713V2.909z"/></symbol><symbol id="icon-emblem-trident" viewBox="0 0 20 32"><path d="M9.005 30.888a8.64 8.64 0 0 1-3.414-5.351H0V2.42c2.991 1.443 5.153 4.599 5.388 7.876l.846 6.493-.407-.045c-.893 0-1.676.812-1.676 1.608 0 .752.595 1.383 1.378 1.548l1.018.226c1.676-3.051 2.631-6.042 2.631-8.973 0-2.645-.36-5.291-.423-7.996 0-1.202.486-2.3 1.253-3.156.783.857 1.253 1.954 1.253 3.156 0 2.705-.423 5.351-.423 7.996 0 2.931.955 5.922 2.631 8.973l1.018-.226c.783-.165 1.378-.812 1.378-1.548 0-.812-.783-1.608-1.676-1.608l-.423.06.846-6.493c.423-3.277 2.396-6.448 5.388-7.876v23.117h-5.576c-.423 2.179-1.613 4.148-3.414 5.351-.423.286-.783.631-1.018 1.097-.219-.466-.579-.812-.987-1.112zM2.647 17.556c.235-.857.893-1.608 1.738-2.074l-.658-5.351a8.288 8.288 0 0 0-2.036-4.374v11.784h.955v.015zm2.819 6.373c0-.812.125-1.548.298-2.3l-.783-.18c-1.143-.346-2.036-1.203-2.334-2.3h-.955v4.78h3.774zm3.712 0c0-.977-.783-1.834-1.801-1.954-.172.631-.298 1.263-.298 1.954h2.099zm0 1.623H7.314c.298 1.263.955 2.42 1.864 3.397v-3.397zm2.631-5.005c-.72-1.262-1.378-2.585-1.801-3.968-.423 1.383-1.081 2.706-1.801 3.968.72.165 1.316.631 1.801 1.157.486-.526 1.081-.992 1.801-1.157zm1.143 3.382c0-.691-.125-1.323-.297-1.954-1.018.12-1.801.977-1.801 1.954h2.099zm-.235 1.623h-1.864v3.397c.908-.992 1.566-2.134 1.864-3.397zm5.623-1.623v-4.78h-.955c-.298 1.097-1.206 1.954-2.334 2.3l-.783.18c.172.752.298 1.488.298 2.3h3.774zm0-6.373V5.757c-1.081 1.202-1.864 2.706-2.036 4.374l-.658 5.351c.846.466 1.504 1.203 1.739 2.074h.955z"/></symbol><symbol id="icon-handbag" viewBox="0 0 32 32"><path d="M25.333 9.333h-4V8a5.332 5.332 0 1 0-10.666 0v1.333h-4a1.335 1.335 0 0 0-1.334 1.334v14.667a4.003 4.003 0 0 0 4 4h13.333a4.003 4.003 0 0 0 4-4V10.667a1.335 1.335 0 0 0-1.334-1.334zM13.333 8a2.668 2.668 0 0 1 5.334 0v1.333h-5.333V8zM24 25.333a1.335 1.335 0 0 1-1.334 1.334H9.333a1.335 1.335 0 0 1-1.334-1.334V12h2.667v1.333a1.335 1.335 0 0 0 2.277.943c.25-.251.391-.589.391-.943V12h5.333v1.333a1.333 1.333 0 1 0 2.667 0V12h2.667v13.333z"/></symbol><symbol id="icon-logo" viewBox="0 0 126 32"><path fill="#f6f6f6" style="fill:var(--color4,#f6f6f6)" d="m0 2.286 14.008 13.861 13.42 13.567V2.285H-.001z"/><path fill="#f6f6f6" style="fill:var(--color4,#f6f6f6)" d="m3.82 5.91 10.237 10.139 9.649 9.845H3.82V5.91z"/><path fill="#4f2ee8" style="fill:var(--color3,#4f2ee8)" d="M23.771 25.959 13.534 15.82 3.885 5.975h19.886v19.984z"/><path fill="#4f2ee8" style="fill:var(--color3,#4f2ee8)" d="m7.935 10.024 11.657 11.657H7.935V10.024z"/><path fill="#f6f6f6" style="fill:var(--color4,#f6f6f6)" d="m7.935 10.024 11.657 11.657V10.024H7.935z"/><path style="fill:var(--color5,#000)" d="M47.659 12.266c0-2.366-1.749-3.703-4.773-3.703h-6.315v14.709h6.665c3.045 0 4.999-1.461 4.999-4.299 0-2.201-1.317-3.333-2.859-3.6v-.041c1.214-.411 2.283-1.255 2.283-3.065zm-8.64 2.387v-4.011h3.929c1.461 0 2.263.72 2.263 2.016s-.658 1.995-2.407 1.995h-3.785zm0 1.83h4.299c1.543 0 2.469.843 2.469 2.345 0 1.378-.638 2.366-2.736 2.366h-4.032v-4.711zM54.516 23.581c-3.291 0-5.287-2.283-5.287-5.554s1.995-5.554 5.287-5.554c3.291 0 5.287 2.283 5.287 5.554s-1.995 5.554-5.287 5.554zm0-1.77c2.057 0 3.127-1.625 3.127-3.785 0-2.181-1.07-3.785-3.127-3.785s-3.127 1.605-3.127 3.785c0 2.16 1.07 3.785 3.127 3.785zM66.027 23.581c-3.291 0-5.287-2.283-5.287-5.554s1.995-5.554 5.287-5.554c3.291 0 5.287 2.283 5.287 5.554s-1.995 5.554-5.287 5.554zm0-1.77c2.057 0 3.127-1.625 3.127-3.785 0-2.181-1.07-3.785-3.127-3.785S62.9 15.846 62.9 18.026c0 2.16 1.07 3.785 3.127 3.785zM72.807 8.563v14.709h2.16v-3.806l1.461-1.378 3.312 5.184h2.592l-4.423-6.603L81.9 12.76h-2.654l-4.279 4.217V8.563h-2.16zM87.539 16.915c-1.522-.35-2.695-.432-2.695-1.502 0-.741.699-1.234 1.995-1.234 1.687 0 2.098.843 2.242 1.666h2.098c-.144-1.831-1.502-3.374-4.361-3.374-2.633 0-4.155 1.378-4.155 3.106 0 2.386 2.263 2.715 3.929 3.106 1.543.37 2.798.473 2.798 1.79 0 .658-.638 1.399-2.139 1.399-2.222 0-2.715-.967-2.818-2.098h-2.098c.103 2.222 1.563 3.806 4.958 3.806 2.551 0 4.279-1.255 4.279-3.271 0-2.51-2.098-2.942-4.032-3.394zM98.633 12.472c-1.769 0-2.859.823-3.415 1.646h-.041V8.564h-2.16v14.709h2.16v-6.398c0-1.563 1.131-2.571 2.715-2.571 1.502 0 2.098.905 2.098 2.325v6.645h2.181v-7.262c0-2.407-1.543-3.538-3.538-3.538zM108.796 21.811c-1.913 0-3.045-1.461-3.045-3.23h8.064c0-3.744-1.666-6.11-5.061-6.11-3.168 0-5.163 2.139-5.163 5.554 0 3.291 1.995 5.554 5.266 5.554 2.695 0 4.258-1.522 4.793-3.518h-2.16c-.185.638-.905 1.749-2.695 1.749zm-.042-7.632c1.749 0 2.901 1.173 2.901 2.798h-5.904c0-1.625 1.255-2.798 3.003-2.798zM115.337 8.563v14.709h2.181V8.563h-2.181zM124.573 10.333V8.564a7.6 7.6 0 0 0-1.44-.144c-1.728 0-2.674.782-2.674 3.003v1.337h-1.502v1.769h1.502v8.743h2.181v-8.743h1.934V12.76h-1.934v-1.152c0-1.193.535-1.337 1.934-1.275z"/></symbol><symbol id="icon-logo-dark" viewBox="0 0 126 32"><path fill="#f6f6f6" style="fill:var(--color4,#f6f6f6)" d="m0 2.286 14.008 13.861 13.42 13.567V2.285H-.001z"/><path fill="#f6f6f6" style="fill:var(--color4,#f6f6f6)" d="m3.82 5.91 10.237 10.139 9.649 9.845H3.82V5.91z"/><path fill="#4f2ee8" style="fill:var(--color3,#4f2ee8)" d="M23.771 25.959 13.534 15.82 3.885 5.975h19.886v19.984z"/><path fill="#4f2ee8" style="fill:var(--color3,#4f2ee8)" d="m7.935 10.024 11.657 11.657H7.935V10.024z"/><path fill="#f6f6f6" style="fill:var(--color4,#f6f6f6)" d="m7.935 10.024 11.657 11.657V10.024H7.935z"/><path fill="#f3f3f3" style="fill:var(--color6,#f3f3f3)" d="M47.659 12.266c0-2.366-1.749-3.703-4.773-3.703h-6.315v14.709h6.665c3.045 0 4.999-1.461 4.999-4.299 0-2.201-1.317-3.333-2.859-3.6v-.041c1.214-.411 2.283-1.255 2.283-3.065zm-8.64 2.387v-4.011h3.929c1.461 0 2.263.72 2.263 2.016s-.658 1.995-2.407 1.995h-3.785zm0 1.83h4.299c1.543 0 2.469.843 2.469 2.345 0 1.378-.638 2.366-2.736 2.366h-4.032v-4.711zM54.516 23.581c-3.291 0-5.287-2.283-5.287-5.554s1.995-5.554 5.287-5.554c3.291 0 5.287 2.283 5.287 5.554s-1.995 5.554-5.287 5.554zm0-1.77c2.057 0 3.127-1.625 3.127-3.785 0-2.181-1.07-3.785-3.127-3.785s-3.127 1.605-3.127 3.785c0 2.16 1.07 3.785 3.127 3.785zM66.027 23.581c-3.291 0-5.287-2.283-5.287-5.554s1.995-5.554 5.287-5.554c3.291 0 5.287 2.283 5.287 5.554s-1.995 5.554-5.287 5.554zm0-1.77c2.057 0 3.127-1.625 3.127-3.785 0-2.181-1.07-3.785-3.127-3.785S62.9 15.846 62.9 18.026c0 2.16 1.07 3.785 3.127 3.785zM72.807 8.563v14.709h2.16v-3.806l1.461-1.378 3.312 5.184h2.592l-4.423-6.603L81.9 12.76h-2.654l-4.279 4.217V8.563h-2.16zM87.539 16.915c-1.522-.35-2.695-.432-2.695-1.502 0-.741.699-1.234 1.995-1.234 1.687 0 2.098.843 2.242 1.666h2.098c-.144-1.831-1.502-3.374-4.361-3.374-2.633 0-4.155 1.378-4.155 3.106 0 2.386 2.263 2.715 3.929 3.106 1.543.37 2.798.473 2.798 1.79 0 .658-.638 1.399-2.139 1.399-2.222 0-2.715-.967-2.818-2.098h-2.098c.103 2.222 1.563 3.806 4.958 3.806 2.551 0 4.279-1.255 4.279-3.271 0-2.51-2.098-2.942-4.032-3.394zM98.633 12.472c-1.769 0-2.859.823-3.415 1.646h-.041V8.564h-2.16v14.709h2.16v-6.398c0-1.563 1.131-2.571 2.715-2.571 1.502 0 2.098.905 2.098 2.325v6.645h2.181v-7.262c0-2.407-1.543-3.538-3.538-3.538zM108.796 21.811c-1.913 0-3.045-1.461-3.045-3.23h8.064c0-3.744-1.666-6.11-5.061-6.11-3.168 0-5.163 2.139-5.163 5.554 0 3.291 1.995 5.554 5.266 5.554 2.695 0 4.258-1.522 4.793-3.518h-2.16c-.185.638-.905 1.749-2.695 1.749zm-.042-7.632c1.749 0 2.901 1.173 2.901 2.798h-5.904c0-1.625 1.255-2.798 3.003-2.798zM115.337 8.563v14.709h2.181V8.563h-2.181zM124.573 10.333V8.564a7.6 7.6 0 0 0-1.44-.144c-1.728 0-2.674.782-2.674 3.003v1.337h-1.502v1.769h1.502v8.743h2.181v-8.743h1.934V12.76h-1.934v-1.152c0-1.193.535-1.337 1.934-1.275z"/></symbol><symbol id="icon-user" viewBox="0 0 23 32"><path d="M.296 30.963a11.26 11.26 0 1 1 22.519 0H.297zm11.26-12.667c-4.666 0-8.444-3.779-8.444-8.444s3.779-8.444 8.444-8.444C16.222 1.408 20 5.187 20 9.852s-3.779 8.444-8.444 8.444z"/></symbol><symbol id="icon-burger" viewBox="0 0 32 32"><path fill="none" stroke="#111" style="stroke:var(--color3,#111)" stroke-linejoin="round" stroke-linecap="round" stroke-width="2.286" d="M22.667 13.333H4M28 8H4M28 18.667H4M22.667 24H4"/></symbol><symbol id="icon-basket" viewBox="0 0 32 32"><path fill="none" stroke-linejoin="round" stroke-linecap="round" stroke-width="2.909" d="M12 4h8M4 8h24m-2.667 0-.935 14.026c-.14 2.104-.21 3.157-.665 3.954a4 4 0 0 1-1.731 1.619c-.826.4-1.881.4-3.99.4h-4.025c-2.109 0-3.163 0-3.99-.4a4.005 4.005 0 0 1-1.731-1.619c-.455-.798-.525-1.85-.665-3.954L6.666 8m6.667 6v6.667M18.667 14v6.667"/></symbol><symbol id="icon-close" viewBox="0 0 32 32"><path stroke-linejoin="round" stroke-linecap="round" stroke-width="5.333" d="M28.444 3.556 3.555 28.445m.001-24.889 24.889 24.889"/></symbol><symbol id="icon-message" viewBox="0 0 32 32"><path fill="none" stroke="#111" style="stroke:var(--color3,#111)" stroke-linejoin="round" stroke-linecap="round" stroke-width="2.286" d="m28.666 24-8.857-8m-7.619 0-8.857 8M2.667 9.333l10.887 7.621c.882.617 1.322.926 1.802 1.045.423.106.866.106 1.29 0 .479-.12.92-.428 1.802-1.045l10.887-7.621M9.067 26.667h13.867c2.24 0 3.36 0 4.216-.436a3.996 3.996 0 0 0 1.748-1.748c.436-.856.436-1.976.436-4.216v-8.533c0-2.24 0-3.36-.436-4.216A3.991 3.991 0 0 0 27.15 5.77c-.856-.436-1.976-.436-4.216-.436H9.067c-2.24 0-3.36 0-4.216.436a3.991 3.991 0 0 0-1.748 1.748c-.436.856-.436 1.976-.436 4.216v8.533c0 2.24 0 3.36.436 4.216a3.996 3.996 0 0 0 1.748 1.748c.856.436 1.976.436 4.216.436z"/></symbol><symbol id="icon-lock" viewBox="0 0 32 32"><path fill="none" stroke="#111" style="stroke:var(--color3,#111)" stroke-linejoin="round" stroke-linecap="round" stroke-width="2.286" d="M22.667 14.667v-4a6.667 6.667 0 0 0-13.334 0v4M10.4 28h11.2c2.24 0 3.36 0 4.216-.436a3.991 3.991 0 0 0 1.748-1.748C28 24.96 28 23.84 28 21.6v-.533c0-2.24 0-3.36-.436-4.216a3.991 3.991 0 0 0-1.748-1.748c-.856-.436-1.976-.436-4.216-.436H10.4c-2.24 0-3.36 0-4.216.436a3.996 3.996 0 0 0-1.748 1.748C4 17.707 4 18.827 4 21.067v.533c0 2.24 0 3.36.436 4.216a3.991 3.991 0 0 0 1.748 1.748C7.04 28 8.16 28 10.4 28z"/></symbol><symbol id="icon-emblem" xmlns="http://www.w3.org/2000/svg" viewBox="0 0 20 32" fill="none"><path d="M9.005 30.888a8.64 8.64 0 0 1-3.414-5.351H0V2.42c2.991 1.443 5.153 4.6 5.388 7.876l.845 6.493-.407-.045c-.893 0-1.676.812-1.676 1.608 0 .752.595 1.383 1.379 1.548l1.018.226c1.675-3.051 2.63-6.042 2.63-8.973 0-2.646-.36-5.291-.422-7.997 0-1.202.485-2.3 1.253-3.156.783.857 1.253 1.954 1.253 3.156 0 2.706-.423 5.351-.423 7.997 0 2.93.955 5.922 2.631 8.973l1.018-.226c.783-.165 1.378-.811 1.378-1.548 0-.811-.783-1.608-1.675-1.608l-.423.06.845-6.493C15.035 7.034 17.01 3.863 20 2.435v23.117h-5.576c-.422 2.18-1.613 4.148-3.414 5.35-.423.286-.783.632-1.018 1.098-.22-.466-.58-.812-.987-1.112ZM2.647 17.556c.235-.857.893-1.609 1.738-2.075l-.658-5.35a8.286 8.286 0 0 0-2.036-4.374V17.54h.956v.015Zm2.819 6.373c0-.812.125-1.548.298-2.3l-.784-.18c-1.143-.346-2.036-1.203-2.333-2.3H1.69v4.78h3.775Zm3.712 0c0-.977-.783-1.834-1.801-1.954-.173.63-.298 1.262-.298 1.954h2.099Zm0 1.623H7.314c.298 1.262.955 2.42 1.864 3.397v-3.397Zm2.63-5.005c-.72-1.263-1.377-2.585-1.8-3.968-.423 1.383-1.08 2.705-1.801 3.968.72.165 1.315.631 1.8 1.157.486-.526 1.082-.992 1.802-1.157Zm1.144 3.382c0-.692-.125-1.323-.297-1.954-1.018.12-1.801.977-1.801 1.954h2.098Zm-.235 1.623h-1.863v3.397c.908-.992 1.566-2.135 1.863-3.397Zm5.623-1.623v-4.78h-.956c-.297 1.097-1.206 1.954-2.333 2.3l-.783.18c.172.752.297 1.488.297 2.3h3.775Zm0-6.373v-11.8c-1.08 1.203-1.864 2.706-2.036 4.375l-.658 5.35c.846.466 1.504 1.203 1.738 2.075h.956Z" fill="#fff"/></symbol><symbol id="icon-remove" viewBox="0 0 34 32"><path fill="none" stroke="#fff" style="stroke:var(--color1,#fff)" stroke-linejoin="round" stroke-linecap="round" stroke-width="3.048" d="M12.571 2.667h8.381M4.19 6.857h25.143m-2.793 0-.98 14.694c-.147 2.204-.221 3.307-.697 4.143a4.195 4.195 0 0 1-1.814 1.697c-.866.419-1.97.419-4.18.419h-4.217c-2.209 0-3.314 0-4.18-.419a4.194 4.194 0 0 1-1.814-1.697c-.476-.836-.55-1.938-.697-4.143l-.98-14.694m6.987 6.286v6.984m5.587-6.984v6.984"/></symbol><symbol id="icon-arrow-down" xmlns="http://www.w3.org/2000/svg" viewBox="0 0 22 22" fill="none"><path d="M10.349 12.284a.916.916 0 0 0 1.301 0l4.199-4.208a.916.916 0 1 1 1.301 1.292l-4.207 4.208a2.75 2.75 0 0 1-3.887 0L4.85 9.368A.917.917 0 0 1 6.15 8.076l4.199 4.207Z" fill="#4F2EE8"/></symbol></defs></svg>