<svg width="26" height="26" fill="none" xmlns="http://www.w3.org/2000/svg"><g filter="url('#filter0_ddd_32601_151')"><path fill-rule="evenodd" clip-rule="evenodd" d="M12 20a9 9 0 1 0 0-18 9 9 0 0 0 0 18Z" fill="url('#paint0_linear_32601_151')"/></g><path fill-rule="evenodd" clip-rule="evenodd" d="M12 18.5a7.5 7.5 0 1 0 0-15 7.5 7.5 0 0 0 0 15Z" fill="url('#paint1_linear_32601_151')"/><path fill-rule="evenodd" clip-rule="evenodd" d="M12 17.5a6.5 6.5 0 1 0 0-13 6.5 6.5 0 0 0 0 13Z" fill="url('#paint2_linear_32601_151')"/><defs><linearGradient id="paint0_linear_32601_151" x1="12" y1="2" x2="12" y2="20" gradientUnits="userSpaceOnUse"><stop stop-color="#fff"/><stop offset="1" stop-color="#F7F7F7"/></linearGradient><linearGradient id="paint1_linear_32601_151" x1="12" y1="3.5" x2="12" y2="18.5" gradientUnits="userSpaceOnUse"><stop stop-color="#DADADA"/><stop offset=".629" stop-color="#F0EFEF"/><stop offset="1" stop-color="#fff"/></linearGradient><linearGradient id="paint2_linear_32601_151" x1="12" y1="4.5" x2="12" y2="17.5" gradientUnits="userSpaceOnUse"><stop stop-color="#fff"/><stop offset="1" stop-color="#F7F7F7"/></linearGradient><filter id="filter0_ddd_32601_151" x="0" y="0" width="26" height="26" filterUnits="userSpaceOnUse" color-interpolation-filters="sRGB"><feFlood flood-opacity="0" result="BackgroundImageFix"/><feColorMatrix in="SourceAlpha" values="0 0 0 0 0 0 0 0 0 0 0 0 0 0 0 0 0 0 127 0" result="hardAlpha"/><feOffset dx="1" dy="2"/><feGaussianBlur stdDeviation="2"/><feColorMatrix values="0 0 0 0 0 0 0 0 0 0 0 0 0 0 0 0 0 0 0.1 0"/><feBlend in2="BackgroundImageFix" result="effect1_dropShadow_32601_151"/><feColorMatrix in="SourceAlpha" values="0 0 0 0 0 0 0 0 0 0 0 0 0 0 0 0 0 0 127 0" result="hardAlpha"/><feOffset dy="2"/><feGaussianBlur stdDeviation="1"/><feColorMatrix values="0 0 0 0 0 0 0 0 0 0 0 0 0 0 0 0 0 0 0.1 0"/><feBlend in2="effect1_dropShadow_32601_151" result="effect2_dropShadow_32601_151"/><feColorMatrix in="SourceAlpha" values="0 0 0 0 0 0 0 0 0 0 0 0 0 0 0 0 0 0 127 0" result="hardAlpha"/><feOffset dx="1" dy="1"/><feGaussianBlur stdDeviation="1"/><feColorMatrix values="0 0 0 0 0 0 0 0 0 0 0 0 0 0 0 0 0 0 0.1 0"/><feBlend in2="effect2_dropShadow_32601_151" result="effect3_dropShadow_32601_151"/><feBlend in="SourceGraphic" in2="effect3_dropShadow_32601_151" result="shape"/></filter></defs></svg>